<?xml version="1.0" encoding="utf-8"?>
<!-- Generator: Adobe Illustrator 18.0.0, SVG Export Plug-In . SVG Version: 6.00 Build 0)  -->
<!DOCTYPE svg PUBLIC "-//W3C//DTD SVG 1.1//EN" "http://www.w3.org/Graphics/SVG/1.1/DTD/svg11.dtd">
<svg version="1.1" id="Layer_1" xmlns="http://www.w3.org/2000/svg" xmlns:xlink="http://www.w3.org/1999/xlink" x="0px" y="0px"
	 viewBox="0 0 94 94" style="enable-background:new 0 0 94 94;" xml:space="preserve">
<circle style="fill:#FFFFFF;" cx="47" cy="47" r="47"/>
<path style="fill:#F83738;" d="M56.7,35.4c-4.1,0-7.4,3.3-7.4,7.4c0,4.1,3.3,7.4,7.4,7.4c4.1,0,7.4-3.3,7.4-7.4
	C64.1,38.7,60.8,35.4,56.7,35.4z M37.3,35.4c-4.1,0-7.4,3.3-7.4,7.4c0,4.1,3.3,7.4,7.4,7.4c4.1,0,7.4-3.3,7.4-7.4
	C44.7,38.7,41.4,35.4,37.3,35.4z M47,0C21,0,0,21,0,47c0,18.7,10.9,34.9,26.8,42.4V69.9c1.9-0.6,3.3-2.3,3.3-4.4V55.3
	c1.7,1,3.7,1.7,5.7,2c0.4,3.5,3.2,6.3,6.7,6.6v1.1c0,1.3,1,2.3,2.3,2.3c1.3,0,2.3-1,2.3-2.3v-2.3c0.1,0,0.1-0.1,0.2-0.1
	c0.1,0,0.1,0.1,0.2,0.1v2.3c0,1.3,1,2.3,2.3,2.3c1.3,0,2.3-1,2.3-2.3v-1.1c3.5-0.3,6.4-3.1,6.7-6.6c1.8-0.2,3.5-0.8,5.1-1.7v9.9
	c0,2.1,1.4,3.8,3.3,4.4v19.6C83.1,81.9,94,65.7,94,47C94,21,73,0,47,0z M51.5,62.1c-1.3,0-2.7-0.5-3.7-1.4l-0.6-0.5l-0.6,0.5
	c-1.1,0.9-2.3,1.4-3.7,1.4c-2.8,0-5.1-2.1-5.6-4.8c0,0,0.1,0,0.1,0c2.6,0,5.1-0.7,7.2-1.9c0.1,1.2,1.2,1.7,2.5,1.7
	c1.3,0,2.3-0.5,2.5-1.6c2.2,1.2,4.6,1.9,7.2,1.9c0,0,0.1,0,0.1,0C56.7,60.1,54.4,62.1,51.5,62.1z M75.6,65.5c0,1.4-1.2,2.6-2.6,2.6
	h-4.4c-1.4,0-2.6-1.2-2.6-2.6V51.6c-2.3,2.3-5.5,3.8-9,3.8c-3.9,0-7.4-1.8-9.7-4.6c-2.3,2.8-5.8,4.6-9.7,4.6c-3.8,0-7.2-1.7-9.5-4.3
	v14.5c0,1.4-1.2,2.6-2.6,2.6H21c-1.4,0-2.6-1.2-2.6-2.6v-0.2c0-1.4,1-2.6,2.1-2.6c1.2,0,2.1-1.2,2.1-2.6V45.5H21v-5.4h1.6
	C22.7,26.7,33.6,15.8,47,15.8c13.4,0,24.3,10.9,24.4,24.3H73v5.4h-1.6v14.6c0,1.4,1,2.6,2.1,2.6c1.2,0,2.1,1.2,2.1,2.6V65.5z"/>
</svg>
