<?xml version="1.0" encoding="utf-8"?>
<!-- Generator: Adobe Illustrator 18.0.0, SVG Export Plug-In . SVG Version: 6.00 Build 0)  -->
<!DOCTYPE svg PUBLIC "-//W3C//DTD SVG 1.1//EN" "http://www.w3.org/Graphics/SVG/1.1/DTD/svg11.dtd">
<svg version="1.1" id="Layer_1" xmlns="http://www.w3.org/2000/svg" xmlns:xlink="http://www.w3.org/1999/xlink" x="0px" y="0px"
	 viewBox="0 0 8.6 8.4" style="enable-background:new 0 0 8.6 8.4;" xml:space="preserve">
<g>
	<path style="fill:#003849;" d="M5.7,8.4c-0.2,0-0.3-0.1-0.3-0.2c0-0.1,0-0.6,0-1.2c0-0.4-0.1-0.7-0.3-0.8c1-0.1,2-0.5,2-2.1
		c0-0.5-0.2-0.9-0.4-1.2c0-0.1,0.2-0.5,0-1.1C6.2,1.7,5.4,2.2,5.4,2.2C5,2.1,4.7,2.1,4.3,2.1S3.6,2.1,3.2,2.2c0,0-0.8-0.6-1.2-0.4
		C1.8,2.4,2,2.8,2,2.9C1.7,3.2,1.6,3.6,1.6,4.1c0,1.6,1,2,2,2.1C3.4,6.3,3.3,6.5,3.2,6.8C3,6.9,2.4,7.1,2,6.4C1.8,6,1.3,6,1.3,6
		c-0.4,0,0,0.3,0,0.3c0.3,0.1,0.5,0.6,0.5,0.6C2,7.6,3.2,7.4,3.2,7.4c0,0.4,0,0.7,0,0.8c0,0.1-0.1,0.2-0.3,0.2C1.2,7.8,0,6.2,0,4.3
		C0,1.9,1.9,0,4.3,0s4.3,1.9,4.3,4.3C8.6,6.2,7.4,7.8,5.7,8.4z"/>
</g>
</svg>
