<?xml version="1.0" encoding="utf-8"?>
<!-- Generator: Adobe Illustrator 18.0.0, SVG Export Plug-In . SVG Version: 6.00 Build 0)  -->
<!DOCTYPE svg PUBLIC "-//W3C//DTD SVG 1.1//EN" "http://www.w3.org/Graphics/SVG/1.1/DTD/svg11.dtd">
<svg version="1.1" id="Layer_1" xmlns="http://www.w3.org/2000/svg" xmlns:xlink="http://www.w3.org/1999/xlink" x="0px" y="0px"
	 viewBox="0 513.8 612 278.2" style="enable-background:new 0 513.8 612 278.2;" xml:space="preserve">
<g id="Layer_2">
	<g>
		<path style="fill:#FFCD00;stroke:#00384A;stroke-width:7;stroke-miterlimit:10;" d="M389.3,812.7h-82.2c-8.2,0-14.8-6.7-14.8-14.8
			v-118c0-8.2,6.7-14.8,14.8-14.8h82.2c8.2,0,14.8,6.7,14.8,14.8v118C404.2,806.1,397.5,812.7,389.3,812.7z"/>
		
			<line style="fill:none;stroke:#00384A;stroke-width:7;stroke-linecap:round;stroke-miterlimit:10;" x1="313.7" y1="700.6" x2="381.9" y2="700.6"/>
		
			<line style="fill:none;stroke:#00384A;stroke-width:7;stroke-linecap:round;stroke-miterlimit:10;" x1="313.7" y1="722.9" x2="381.9" y2="722.9"/>
		
			<line style="fill:none;stroke:#00384A;stroke-width:7;stroke-linecap:round;stroke-miterlimit:10;" x1="313.7" y1="745.3" x2="381.9" y2="745.3"/>
		
			<line style="fill:none;stroke:#00384A;stroke-width:7;stroke-linecap:round;stroke-miterlimit:10;" x1="313.7" y1="767.5" x2="381.9" y2="767.5"/>
		<path style="fill:#FFCD00;stroke:#00384A;stroke-width:7;stroke-miterlimit:10;" d="M377.1,629.6h-57.8c-4.1,0-7.3,3.3-7.3,7.3
			v20.4v7.3h72.5v-7.3v-20.4C384.5,632.9,381,629.6,377.1,629.6z"/>
		<path style="fill:#FFCD00;stroke:#00384A;stroke-width:7;stroke-miterlimit:10;" d="M366.9,606.9h-37.5c-2.6,0-4.7,2.1-4.7,4.7
			v13.3v4.7h46.9v-4.7v-13.2C371.7,608.9,369.5,606.9,366.9,606.9z"/>
		
			<line style="fill:none;stroke:#00384A;stroke-width:7;stroke-linecap:round;stroke-miterlimit:10;" x1="347.7" y1="604.4" x2="347.7" y2="562.3"/>
		
			<line style="fill:none;stroke:#00384A;stroke-width:7;stroke-linecap:round;stroke-miterlimit:10;" x1="331" y1="647.2" x2="364.4" y2="647.2"/>
	</g>
	<g>
		<path style="fill:#E8E900;stroke:#00384A;stroke-width:7;stroke-miterlimit:10;" d="M298.2,847h-53.7c-8.2,0-14.8-6.7-14.8-14.8
			V713.3c0-8.2,6.7-14.8,14.8-14.8h53.7c8.2,0,14.8,6.7,14.8,14.8v118.8C313.1,840.3,306.4,847,298.2,847z"/>
		
			<line style="fill:none;stroke:#00384A;stroke-width:7;stroke-linecap:round;stroke-miterlimit:10;" x1="245.3" y1="730.4" x2="296.2" y2="730.4"/>
		
			<line style="fill:none;stroke:#00384A;stroke-width:7;stroke-linecap:round;stroke-miterlimit:10;" x1="245.3" y1="752.7" x2="296.2" y2="752.7"/>
		
			<line style="fill:none;stroke:#00384A;stroke-width:7;stroke-linecap:round;stroke-miterlimit:10;" x1="245.3" y1="775.1" x2="296.2" y2="775.1"/>
	</g>
	<g>
		<path style="fill:#C1DC00;stroke:#00384A;stroke-width:7;stroke-miterlimit:10;" d="M72.4,894.1H18.8c-8.2,0-14.8-6.7-14.8-14.8
			V760.4c0-8.2,6.7-14.8,14.8-14.8h53.7c8.2,0,14.8,6.7,14.8,14.8v118.8C87.3,887.5,80.7,894.1,72.4,894.1z"/>
		
			<line style="fill:none;stroke:#00384A;stroke-width:7;stroke-linecap:round;stroke-miterlimit:10;" x1="19.6" y1="777.6" x2="70.4" y2="777.6"/>
		
			<line style="fill:none;stroke:#00384A;stroke-width:7;stroke-linecap:round;stroke-miterlimit:10;" x1="19.6" y1="799.8" x2="70.4" y2="799.8"/>
		
			<line style="fill:none;stroke:#00384A;stroke-width:7;stroke-linecap:round;stroke-miterlimit:10;" x1="19.6" y1="822.2" x2="70.4" y2="822.2"/>
	</g>
	<g>
		<path style="fill:#C1DC00;stroke:#00384A;stroke-width:7;stroke-miterlimit:10;" d="M249.9,880.5h-53.7c-8.2,0-14.8-6.7-14.8-14.8
			V746.8c0-8.2,6.7-14.8,14.8-14.8h53.7c8.2,0,14.8,6.7,14.8,14.8v118.8C264.7,873.7,258,880.5,249.9,880.5z"/>
		
			<line style="fill:none;stroke:#00384A;stroke-width:7;stroke-linecap:round;stroke-miterlimit:10;" x1="197" y1="763.8" x2="247.8" y2="763.8"/>
		
			<line style="fill:none;stroke:#00384A;stroke-width:7;stroke-linecap:round;stroke-miterlimit:10;" x1="197" y1="786.2" x2="247.8" y2="786.2"/>
		
			<line style="fill:none;stroke:#00384A;stroke-width:7;stroke-linecap:round;stroke-miterlimit:10;" x1="197" y1="808.6" x2="247.8" y2="808.6"/>
	</g>
	<g>
		<path style="fill:#6CFED6;stroke:#00384A;stroke-width:7;stroke-miterlimit:10;" d="M195.2,864.3h-73.1c-8.2,0-14.8-6.7-14.8-14.8
			V721c0-8.2,6.7-14.8,14.8-14.8h73.1c8.2,0,14.8,6.7,14.8,14.8v128.4C210.2,857.7,203.5,864.3,195.2,864.3z"/>
		
			<line style="fill:none;stroke:#00384A;stroke-width:7;stroke-linecap:round;stroke-miterlimit:10;" x1="126.2" y1="731.6" x2="189.5" y2="731.6"/>
		
			<line style="fill:none;stroke:#00384A;stroke-width:7;stroke-linecap:round;stroke-miterlimit:10;" x1="126.2" y1="754" x2="189.5" y2="754"/>
		
			<line style="fill:none;stroke:#00384A;stroke-width:7;stroke-linecap:round;stroke-miterlimit:10;" x1="126.2" y1="776.3" x2="189.5" y2="776.3"/>
	</g>
	<g>
		<circle style="fill:#CBFFFF;" cx="488.3" cy="589.6" r="47.1"/>
		<circle style="fill:#CBFFFF;" cx="551.3" cy="584.9" r="71.1"/>
		<circle style="fill:#CBFFFF;" cx="610.5" cy="589.3" r="36.1"/>
	</g>
</g>
<g id="Layer_3">
	<g>
		<circle style="fill:#FFFFFF;" cx="453.1" cy="790.5" r="126.5"/>
		<circle style="fill:#FFFFFF;" cx="598.9" cy="733.9" r="126.5"/>
		<circle style="fill:#FFFFFF;" cx="716.7" cy="846.9" r="126.5"/>
	</g>
</g>
</svg>
