<svg xmlns="http://www.w3.org/2000/svg" x="0px" y="0px" viewBox="124 174 760 166" style="enable-background:new 124 174 760 166;">
	<path fill="#FFF" d="M805.2,175.6c-1.2-0.6-2.4-0.9-3.7-0.9s-2.5,0.3-3.7,0.9
		l-45.9,22.8l-45.8-22.8c-1.2-0.6-2.4-0.9-3.7-0.9s-2.5,0.3-3.7,0.9l-45.9,22.8l-45.9-22.8c-1.2-0.6-2.4-0.9-3.7-0.9
		s-2.5,0.3-3.7,0.9l-45.9,22.8l-45.9-22.8c-1.2-0.6-2.4-0.9-3.7-0.9c-1.3,0-2.5,0.3-3.7,0.9l-45.9,22.8l-45.9-22.8
		c-1.2-0.6-2.4-0.9-3.7-0.9c-1.3,0-2.5,0.3-3.7,0.9l-45.9,22.8l-45.9-22.8c-1.2-0.6-2.4-0.9-3.7-0.9c-1.3,0-2.5,0.3-3.7,0.9
		L256,198.4l-45.9-22.8c-1.2-0.6-2.4-0.9-3.7-0.9s-2.5,0.3-3.7,0.9l-74.3,37c-2.8,1.4-4.6,4.2-4.6,7.4v74c0,3.1,1.8,6,4.6,7.4
		l74.3,37c1.2,0.6,2.4,0.9,3.7,0.9s2.5-0.3,3.7-0.9l45.9-22.8l45.9,22.8c1.2,0.6,2.4,0.9,3.7,0.9c1.3,0,2.5-0.3,3.7-0.9l45.9-22.8
		l45.9,22.8c1.2,0.6,2.4,0.9,3.7,0.9c1.3,0,2.5-0.3,3.7-0.9l45.9-22.8l45.9,22.8c1.2,0.6,2.4,0.9,3.7,0.9c1.3,0,2.5-0.3,3.7-0.9
		l45.9-22.8l45.9,22.8c1.2,0.6,2.4,0.9,3.7,0.9s2.5-0.3,3.7-0.9l45.9-22.8l45.9,22.8c1.2,0.6,2.4,0.9,3.7,0.9s2.5-0.3,3.7-0.9
		l45.9-22.8l45.9,22.8c1.2,0.6,2.4,0.9,3.7,0.9s2.5-0.3,3.7-0.9l74.3-37c2.8-1.4,4.6-4.2,4.6-7.4v-74c0-3.1-1.8-6-4.6-7.4
		L805.2,175.6z M189.2,232.3h19.7c10.6,0,18,4.9,18,16.2c0,11.6-6.3,16.7-17.6,16.7h-7.2v16.4h-12.9V232.3z M204.2,255
		c4.7,0,9.3,0,9.3-6c0-6.2-4.3-6.3-9.3-6.3h-2.1V255H204.2z M328.9,281.7h-16l-12.2-19h-0.1v19h-12.9v-49.3H307
		c9.8,0,17.2,4.6,17.2,15.2c0,6.8-3.8,12.7-10.8,13.9L328.9,281.7z M300.6,254.4h1.2c4.2,0,8.9-0.8,8.9-6.1s-4.7-6.1-8.9-6.1h-1.2
		V254.4z M404,243.2v8.2h14.5v10.9H404v8.5h15.3v10.9h-28.2v-49.3h28.2v10.9L404,243.2L404,243.2z M515.3,245
		c-2.4-2-5.4-3.3-8.5-3.3c-2.4,0-5.5,1.4-5.5,4.1c0,2.9,3.5,4,5.7,4.7l3.3,1c6.9,2,12.2,5.5,12.2,13.5c0,4.9-1.2,9.9-5.1,13.3
		c-3.9,3.3-9.1,4.6-14.1,4.6c-6.2,0-12.4-2.1-17.4-5.6l5.5-10.3c3.2,2.8,7,5.1,11.4,5.1c3,0,6.2-1.5,6.2-5c0-3.6-5.1-4.8-7.8-5.6
		c-8.1-2.3-13.4-4.4-13.4-13.9c0-10,7.2-16.6,17.1-16.6c5,0,11.1,1.6,15.5,4.1L515.3,245z M614.4,245c-2.4-2-5.4-3.3-8.5-3.3
		c-2.4,0-5.5,1.4-5.5,4.1c0,2.9,3.5,4,5.7,4.7l3.3,1c6.9,2,12.2,5.5,12.2,13.5c0,4.9-1.2,9.9-5.1,13.3c-3.9,3.3-9.1,4.6-14.1,4.6
		c-6.2,0-12.4-2.1-17.4-5.6l5.5-10.3c3.2,2.8,7,5.1,11.4,5.1c3,0,6.2-1.5,6.2-5c0-3.6-5.1-4.8-7.8-5.6c-8.1-2.3-13.4-4.4-13.4-13.9
		c0-10,7.2-16.6,17.1-16.6c5,0,11.1,1.6,15.5,4.1L614.4,245z M703.2,270.8h15.4v10.9h-28.3v-49.3h12.9L703.2,270.8L703.2,270.8z
		 M776.8,232.3h15.4l9.3,13.4l9.3-13.4h15.4l-18.3,25.6v23.7H795v-23.7L776.8,232.3z"/>
</svg>
