<?xml version="1.0" encoding="UTF-8" standalone="no"?>
<!-- Generator: Adobe Illustrator 16.0.0, SVG Export Plug-In . SVG Version: 6.00 Build 0)  -->

<svg
   xmlns:dc="http://purl.org/dc/elements/1.1/"
   xmlns:cc="http://creativecommons.org/ns#"
   xmlns:rdf="http://www.w3.org/1999/02/22-rdf-syntax-ns#"
   xmlns:svg="http://www.w3.org/2000/svg"
   xmlns="http://www.w3.org/2000/svg"
   xmlns:sodipodi="http://sodipodi.sourceforge.net/DTD/sodipodi-0.dtd"
   xmlns:inkscape="http://www.inkscape.org/namespaces/inkscape"
   version="1.1"
   id="Layer_1"
   x="0px"
   y="0px"
   width="48px"
   height="48px"
   viewBox="0 0 48 48"
   enable-background="new 0 0 48 48"
   xml:space="preserve"
   inkscape:version="0.48.5 r10040"
   sodipodi:docname="upload125.svg"
   inkscape:export-filename="/home/reventlov/projects/upper.io/webroot/images/icon.png"
   inkscape:export-xdpi="240"
   inkscape:export-ydpi="240"><metadata
     id="metadata2998"><rdf:RDF><cc:Work
         rdf:about=""><dc:format>image/svg+xml</dc:format><dc:type
           rdf:resource="http://purl.org/dc/dcmitype/StillImage" /><dc:title></dc:title></cc:Work></rdf:RDF></metadata><defs
     id="defs2996" /><sodipodi:namedview
     pagecolor="#ffffff"
     bordercolor="#666666"
     borderopacity="1"
     objecttolerance="10"
     gridtolerance="10"
     guidetolerance="10"
     inkscape:pageopacity="0"
     inkscape:pageshadow="2"
     inkscape:window-width="640"
     inkscape:window-height="480"
     id="namedview2994"
     showgrid="false"
     inkscape:zoom="5"
     inkscape:cx="24"
     inkscape:cy="22.4"
     inkscape:window-x="430"
     inkscape:window-y="140"
     inkscape:window-maximized="0"
     inkscape:current-layer="Layer_1" /><g
     id="g2986"
     style="fill:#ffffff"><path
       d="M39.894,14.871c0.069-0.396,0.112-0.804,0.112-1.22c0-3.877-3.144-7.021-7.021-7.021c-0.846,0-1.654,0.156-2.406,0.431   C28.295,3.518,24.32,1.164,19.79,1.164c-7.091,0-12.84,5.749-12.84,12.84c0,0.333,0.025,0.66,0.051,0.987   c-3.432,0.861-5.977,3.967-5.977,7.664c0,4.364,3.538,7.911,7.901,7.911h0.897c0.087-0.145,0.178-0.211,0.273-0.307l10.348-10.268   c0.893-0.884,2.075-1.36,3.33-1.36h0.011h0.004c1.247,0,2.467,0.497,3.344,1.382l10.273,10.346c0.066,0.066,0.13,0.135,0.192,0.207   h0.958c4.363,0,7.901-3.547,7.901-7.911C46.458,18.749,43.619,15.508,39.894,14.871z"
       id="path2988"
       style="fill:#729fcf"
       inkscape:export-filename="/home/reventlov/projects/upper.io/webroot/images/path2988.png"
       inkscape:export-xdpi="240"
       inkscape:export-ydpi="240" /><g
       id="g2990"
       style="fill:#ffffff"><path
         d="M25.095,22.414c-0.328-0.329-0.841-0.51-1.354-0.51c-0.459,0-1.027,0.181-1.352,0.509L12.243,32.63    c-0.498,0.501-0.645,1.253-0.371,1.904c0.271,0.65,0.909,1.073,1.615,1.072l3.311-0.026l-0.049,8.822    C16.755,45.838,17.921,47,19.356,47h8.771c1.435,0,2.601-1.162,2.606-2.598l-0.049-8.818l3.311,0.023    c0.707,0.002,1.345-0.422,1.616-1.072c0.273-0.651,0.128-1.404-0.372-1.904L25.095,22.414z"
         id="path2992"
         style="fill:#204a87" /></g></g></svg>