<?xml version="1.0" encoding="utf-8"?>
<!-- Generator: Adobe Illustrator 18.0.0, SVG Export Plug-In . SVG Version: 6.00 Build 0)  -->
<!DOCTYPE svg PUBLIC "-//W3C//DTD SVG 1.1//EN" "http://www.w3.org/Graphics/SVG/1.1/DTD/svg11.dtd">
<svg version="1.1" id="Layer_1" xmlns="http://www.w3.org/2000/svg" xmlns:xlink="http://www.w3.org/1999/xlink" x="0px" y="0px"
	 viewBox="1264 263 612 266" enable-background="new 1264 263 612 266" xml:space="preserve">
<g>
	<g>
		<path fill="#FFFFFF" stroke="#F32600" stroke-width="3" stroke-miterlimit="10" d="M1484.1,468.1h-94c-13.8,0-25.1-11.3-25.1-25.1
			v-94c0-13.8,11.3-25.1,25.1-25.1h94c13.8,0,25.1,11.3,25.1,25.1v94C1509.1,456.8,1497.8,468.1,1484.1,468.1z"/>
		<path fill="#FFFFFF" stroke="#F32600" stroke-width="3" stroke-miterlimit="10" d="M1504.9,468.1h-94c-13.8,0-25.1-11.3-25.1-25.1
			v-94c0-13.8,11.3-25.1,25.1-25.1h94c13.8,0,25.1,11.3,25.1,25.1v94C1529.9,456.8,1518.8,468.1,1504.9,468.1z"/>
		<path fill="#FFFFFF" stroke="#F32600" stroke-width="3" stroke-miterlimit="10" d="M1526.1,468.1h-94c-13.8,0-25.1-11.3-25.1-25.1
			v-94c0-13.8,11.3-25.1,25.1-25.1h94c13.8,0,25.1,11.3,25.1,25.1v94C1551.1,456.8,1539.8,468.1,1526.1,468.1z"/>
	</g>
	<g>
		<polygon fill="#F0191A" points="1574.4,381.8 1598.9,396 1574.4,410.2 		"/>
	</g>
	<g enable-background="new    ">
		<path fill="#F0191A" d="M1612.2,416.9v-44.8h30.1v7.6h-21.4v11.5h17.8v7.1h-17.8v18.5L1612.2,416.9L1612.2,416.9z"/>
		<path fill="#F0191A" d="M1647.2,379.2v-8.4h8.5v8.4H1647.2z M1647.2,416.9v-33h8.5v33H1647.2z"/>
		<path fill="#F0191A" d="M1693.9,416.9h-8.5v-18.5c0-2.6-0.5-4.6-1.4-5.8c-0.9-1.2-2.2-1.8-3.8-1.8c-0.8,0-1.7,0.2-2.6,0.5
			s-1.7,0.8-2.5,1.4c-0.8,0.6-1.5,1.3-2.1,2.2c-0.6,0.8-1.1,1.8-1.4,2.8V417h-8.5v-33h7.6v6.1c1.2-2.1,3-3.7,5.3-4.9
			c2.3-1.2,4.9-1.8,7.8-1.8c2.1,0,3.7,0.4,5,1.1c1.3,0.8,2.3,1.7,3,3c0.7,1.2,1.2,2.6,1.5,4.2c0.3,1.6,0.4,3.1,0.4,4.7v20.5H1693.9z
			"/>
		<path fill="#F0191A" d="M1714.8,417.5c-2.3,0-4.4-0.4-6.3-1.3c-1.9-0.9-3.6-2.1-5-3.7c-1.4-1.6-2.5-3.4-3.2-5.5
			c-0.8-2.1-1.2-4.3-1.2-6.7c0-2.4,0.4-4.6,1.1-6.7c0.7-2.1,1.8-3.9,3.1-5.4c1.3-1.6,2.9-2.8,4.7-3.7c1.8-0.9,3.8-1.3,5.9-1.3
			c2.4,0,4.6,0.6,6.5,1.8c2,1.2,3.5,2.7,4.6,4.6v-18.8h8.5v36.3c0,0.9,0.2,1.5,0.5,1.9c0.3,0.4,0.9,0.6,1.8,0.6v7.2
			c-1.6,0.3-2.9,0.4-4,0.4c-1.6,0-2.8-0.4-3.6-1.1c-0.9-0.7-1.4-1.6-1.6-2.8l-0.2-2.3c-1.2,2.1-2.9,3.7-4.9,4.8
			C1719.3,417,1717.2,417.5,1714.8,417.5z M1717.1,410.3c0.8,0,1.6-0.1,2.5-0.4c0.8-0.3,1.6-0.7,2.3-1.2c0.7-0.5,1.4-1.1,2-1.8
			c0.6-0.7,1-1.4,1.3-2.2v-7.9c-0.7-1.8-1.9-3.4-3.5-4.6c-1.6-1.2-3.3-1.8-5.1-1.8c-1.3,0-2.4,0.3-3.5,0.8c-1.1,0.5-2,1.3-2.7,2.2
			c-0.7,0.9-1.3,2-1.8,3.2c-0.4,1.2-0.6,2.5-0.6,3.8c0,1.4,0.2,2.7,0.7,3.8c0.5,1.2,1.1,2.2,1.9,3.1c0.8,0.9,1.8,1.6,2.9,2.1
			S1715.8,410.3,1717.1,410.3z"/>
		<path fill="#F0191A" d="M1740.4,395c0-2.1,0.2-4.3,0.7-6.4s1.1-4.3,2-6.4c0.8-2.1,1.8-4.3,3-6.5c1.1-2.2,2.4-4.4,3.7-6.6l6.5,2.7
			c-0.7,1-1.5,2.4-2.4,4.1c-0.9,1.7-1.8,3.7-2.6,5.8c-0.8,2.1-1.5,4.4-2.1,6.7c-0.6,2.3-0.9,4.6-0.9,6.7c0,3.4,0.7,6.9,2.1,10.6
			c1.4,3.7,3.3,7.4,5.6,11.4l-6.1,3.1c-1.3-1.9-2.6-3.9-3.7-6s-2.1-4.2-3-6.3s-1.5-4.3-2-6.4C1740.8,399.3,1740.4,397.1,1740.4,395z
			"/>
		<path fill="#F0191A" d="M1775.1,395c0,2.1-0.2,4.3-0.7,6.4s-1.2,4.3-2,6.4c-0.9,2.1-1.9,4.3-3,6.3c-1.2,2.1-2.4,4.1-3.7,6
			l-6.2-3.1c2.3-3.9,4.2-7.7,5.6-11.4c1.4-3.7,2.1-7.2,2.1-10.6c0-2.1-0.3-4.4-0.9-6.7c-0.6-2.3-1.3-4.6-2.1-6.7
			c-0.8-2.1-1.7-4.1-2.6-5.8c-0.9-1.7-1.7-3.1-2.4-4.1l6.5-2.7c1.3,2.2,2.5,4.4,3.7,6.6c1.1,2.2,2.1,4.3,3,6.5
			c0.8,2.1,1.5,4.3,2,6.4C1774.8,390.7,1775.1,392.8,1775.1,395z"/>
	</g>
</g>
</svg>
