<?xml version="1.0" encoding="utf-8"?>
<!-- Generator: Adobe Illustrator 18.0.0, SVG Export Plug-In . SVG Version: 6.00 Build 0)  -->
<!DOCTYPE svg PUBLIC "-//W3C//DTD SVG 1.1//EN" "http://www.w3.org/Graphics/SVG/1.1/DTD/svg11.dtd">
<svg version="1.1" id="Layer_1" xmlns="http://www.w3.org/2000/svg" xmlns:xlink="http://www.w3.org/1999/xlink" x="0px" y="0px"
	 viewBox="0 263 612 266" enable-background="new 0 263 612 266" xml:space="preserve">
<g>
	<g>
		<path fill="#FFFFFF" stroke="#F32600" stroke-width="3" stroke-miterlimit="10" d="M414.5,307.2v110.7c0,15,34.1,27.4,76.3,27.4
			s76.3-12.3,76.3-27.4V307.2H414.5z"/>
		<ellipse fill="#FFFFFF" stroke="#F32600" stroke-width="3" stroke-miterlimit="10" cx="490.8" cy="302.6" rx="76.3" ry="27.4"/>
		<path fill="none" stroke="#F32600" stroke-width="3" stroke-miterlimit="10" d="M567.1,359c0,15-34.1,27.4-76.3,27.4
			s-76.3-12.3-76.3-27.4"/>
	</g>
	<path fill="none" stroke="#F32600" stroke-width="3" stroke-miterlimit="10" d="M314.3,415.6h-60.4c-13.8,0-25.1-11.3-25.1-25.1
		v-60.4c0-13.8,11.3-25.1,25.1-25.1h60.4c13.8,0,25.1,11.3,25.1,25.1v60.4C339.3,404.4,328,415.6,314.3,415.6z"/>
	<path fill="none" stroke="#F32600" stroke-width="3" stroke-miterlimit="10" d="M130.4,415.6H70c-13.8,0-25.1-11.3-25.1-25.1v-60.4
		c0-13.8,11.3-25.1,25.1-25.1h60.4c13.8,0,25.1,11.3,25.1,25.1v60.4C155.5,404.4,144.2,415.6,130.4,415.6z"/>
	<g>
		<polygon fill="#F0191A" points="189.9,371.1 171.1,360.3 189.9,349.4 		"/>
		<polygon fill="#F0191A" points="194.1,349.4 212.9,360.3 194.1,371.1 		"/>
	</g>
	<g>
		<polygon fill="#F0191A" points="375.9,371.1 357.1,360.3 375.9,349.4 		"/>
		<polygon fill="#F0191A" points="380.1,349.4 398.9,360.3 380.1,371.1 		"/>
	</g>
	<g enable-background="new    ">
		<path fill="#7C7C7C" d="M70.5,511h-2.2v-7.3c0-1.4-0.2-2.4-0.7-3c-0.4-0.7-1.1-1-2-1s-1.7,0.3-2.4,1c-0.7,0.6-1.2,1.5-1.5,2.5v7.9
			h-2.2v-7.3c0-1.4-0.2-2.4-0.7-3.1c-0.4-0.6-1.1-1-2-1s-1.7,0.3-2.4,0.9s-1.2,1.5-1.5,2.5v7.9h-2.2v-13h2v2.8
			c0.5-1,1.2-1.7,2.1-2.2s1.8-0.8,2.9-0.8c1.1,0,2,0.3,2.6,0.9s1,1.4,1.2,2.3c1.2-2.1,2.8-3.2,5-3.2c0.8,0,1.4,0.1,1.9,0.4
			s0.9,0.7,1.2,1.2c0.3,0.5,0.5,1.1,0.7,1.7c0.1,0.7,0.2,1.4,0.2,2.2C70.5,503.3,70.5,511,70.5,511z"/>
		<path fill="#7C7C7C" d="M77.4,511.3c-0.7,0-1.3-0.1-1.8-0.3c-0.6-0.2-1-0.5-1.4-0.9s-0.7-0.8-0.9-1.3c-0.2-0.5-0.3-1-0.3-1.6
			s0.1-1.2,0.4-1.7s0.6-0.9,1.1-1.3s1.1-0.6,1.8-0.8c0.7-0.2,1.4-0.3,2.2-0.3c0.6,0,1.3,0.1,1.9,0.2c0.7,0.1,1.2,0.3,1.7,0.5v-1.1
			c0-1.1-0.3-1.9-0.9-2.5s-1.5-0.9-2.6-0.9c-1.3,0-2.7,0.5-4.2,1.5l-0.7-1.4c0.9-0.6,1.7-1,2.5-1.3s1.7-0.4,2.6-0.4
			c1.7,0,3,0.5,4,1.4s1.5,2.2,1.5,3.9v5.3c0,0.5,0.2,0.8,0.7,0.8v1.9c-0.2,0-0.3,0.1-0.5,0.1s-0.3,0-0.4,0c-0.4,0-0.7-0.1-1.1-0.3
			c-0.4-0.2-0.5-0.5-0.6-1l-0.1-0.9c-0.3,0.4-0.6,0.8-1,1.1c-0.4,0.3-0.8,0.6-1.2,0.8c-0.4,0.2-0.9,0.4-1.3,0.5
			C78.3,511.2,77.9,511.3,77.4,511.3z M78,509.6c0.7,0,1.4-0.2,2.1-0.5s1.2-0.7,1.6-1.1c0.3-0.4,0.5-0.7,0.5-1v-1.9
			c-0.5-0.2-1.1-0.4-1.6-0.5s-1.1-0.2-1.7-0.2c-1.1,0-2,0.2-2.7,0.7s-1,1.1-1,1.9c0,0.3,0.1,0.7,0.2,1s0.3,0.6,0.6,0.8
			c0.3,0.2,0.6,0.4,0.9,0.6C77.1,509.6,77.5,509.6,78,509.6z"/>
		<path fill="#7C7C7C" d="M87.8,495.5v-2.8H90v2.8H87.8z M87.8,511v-13H90v13H87.8z"/>
		<path fill="#7C7C7C" d="M104.9,511h-2.2v-7.3c0-1.4-0.2-2.4-0.6-3.1c-0.4-0.6-1.1-1-1.9-1c-0.5,0-0.9,0.1-1.4,0.3
			c-0.5,0.2-0.9,0.4-1.3,0.7c-0.4,0.3-0.8,0.7-1.1,1.1c-0.3,0.4-0.5,0.9-0.7,1.4v7.9h-2.2v-13h2v2.8c0.5-0.9,1.3-1.7,2.2-2.2
			s2-0.8,3.2-0.8c0.8,0,1.4,0.1,1.9,0.4s0.9,0.7,1.2,1.2c0.3,0.5,0.5,1.1,0.6,1.7c0.1,0.7,0.2,1.4,0.2,2.2v7.7H104.9z"/>
		<path fill="#7C7C7C" d="M108,511v-2.8h1.9v2.8H108z"/>
		<path fill="#7C7C7C" d="M118.4,511.2c-0.9,0-1.7-0.2-2.4-0.6c-0.7-0.4-1.4-0.9-1.9-1.5s-0.9-1.3-1.2-2.1c-0.3-0.8-0.4-1.6-0.4-2.5
			s0.1-1.8,0.4-2.6c0.3-0.8,0.7-1.5,1.2-2.2c0.5-0.6,1.2-1.1,1.9-1.5c0.7-0.4,1.6-0.5,2.5-0.5c1.1,0,2.1,0.3,2.9,0.8s1.5,1.2,2,2
			V498h2v12.9c0,0.9-0.2,1.8-0.5,2.5c-0.4,0.7-0.8,1.3-1.4,1.8s-1.3,0.9-2.1,1.1c-0.8,0.3-1.7,0.4-2.6,0.4c-1.5,0-2.7-0.3-3.6-0.8
			s-1.7-1.2-2.3-2.1l1.3-1.1c0.5,0.8,1.2,1.3,2,1.7s1.7,0.6,2.7,0.6c0.6,0,1.2-0.1,1.7-0.3s1-0.4,1.4-0.8c0.4-0.3,0.7-0.8,1-1.3
			c0.2-0.5,0.4-1.1,0.4-1.8v-2.3c-0.3,0.4-0.5,0.8-0.9,1.1c-0.3,0.3-0.7,0.6-1.1,0.8c-0.4,0.2-0.8,0.4-1.3,0.5
			C119.4,511.1,118.9,511.2,118.4,511.2z M119.1,509.4c0.5,0,0.9-0.1,1.4-0.2c0.4-0.2,0.8-0.4,1.2-0.7c0.4-0.3,0.7-0.6,0.9-0.9
			c0.3-0.4,0.4-0.7,0.5-1.1v-3.8c-0.2-0.5-0.4-0.9-0.7-1.2c-0.3-0.4-0.6-0.7-1-1s-0.8-0.5-1.2-0.6s-0.9-0.2-1.3-0.2
			c-0.7,0-1.3,0.1-1.8,0.4s-1,0.7-1.3,1.1s-0.7,1-0.9,1.6c-0.2,0.6-0.3,1.2-0.3,1.8c0,0.7,0.1,1.3,0.4,1.9c0.2,0.6,0.6,1.1,1,1.5
			s0.9,0.8,1.4,1C117.9,509.3,118.5,509.4,119.1,509.4z"/>
		<path fill="#7C7C7C" d="M134.5,511.3c-1,0-1.9-0.2-2.7-0.6s-1.5-0.9-2.1-1.5s-1-1.3-1.3-2.2c-0.3-0.8-0.5-1.7-0.5-2.6
			s0.2-1.8,0.5-2.6c0.3-0.8,0.8-1.5,1.4-2.2c0.6-0.6,1.3-1.1,2.1-1.5s1.7-0.6,2.7-0.6s1.9,0.2,2.7,0.6s1.5,0.9,2.1,1.5
			s1,1.3,1.4,2.2c0.3,0.8,0.5,1.7,0.5,2.6s-0.2,1.8-0.5,2.6c-0.3,0.8-0.8,1.5-1.4,2.2c-0.6,0.6-1.3,1.1-2.1,1.5
			C136.4,511.1,135.5,511.3,134.5,511.3z M130.2,504.5c0,0.7,0.1,1.3,0.3,1.9s0.5,1.1,0.9,1.5s0.9,0.8,1.4,1
			c0.5,0.3,1.1,0.4,1.7,0.4c0.6,0,1.2-0.1,1.7-0.4c0.5-0.2,1-0.6,1.4-1s0.7-1,0.9-1.6s0.3-1.2,0.3-1.9c0-0.7-0.1-1.3-0.3-1.9
			s-0.5-1.1-0.9-1.6c-0.4-0.4-0.9-0.8-1.4-1s-1.1-0.4-1.7-0.4c-0.6,0-1.2,0.1-1.7,0.4s-1,0.6-1.4,1.1c-0.4,0.4-0.7,1-0.9,1.6
			S130.2,503.9,130.2,504.5z"/>
	</g>
	<g enable-background="new    ">
		<path fill="#7C7C7C" d="M179.6,495.5v-2.8h2.2v2.8H179.6z M179.6,511v-13h2.2v13H179.6z"/>
		<path fill="#7C7C7C" d="M205,511h-2.2v-7.3c0-1.4-0.2-2.4-0.7-3c-0.4-0.7-1.1-1-2-1s-1.7,0.3-2.4,1c-0.7,0.6-1.2,1.5-1.5,2.5v7.9
			H194v-7.3c0-1.4-0.2-2.4-0.7-3.1c-0.4-0.6-1.1-1-2-1s-1.7,0.3-2.4,0.9s-1.2,1.5-1.5,2.5v7.9h-2.2v-13h2v2.8c0.5-1,1.2-1.7,2.1-2.2
			s1.8-0.8,2.9-0.8c1.1,0,2,0.3,2.6,0.9s1,1.4,1.2,2.3c1.2-2.1,2.8-3.2,5-3.2c0.8,0,1.4,0.1,1.9,0.4s0.9,0.7,1.2,1.2
			s0.5,1.1,0.7,1.7c0.1,0.7,0.2,1.4,0.2,2.2V511z"/>
		<path fill="#7C7C7C" d="M215.3,511.3c-1.1,0-2-0.3-2.9-0.8c-0.8-0.5-1.5-1.2-2-2v7.9h-2.2V498h2v2.5c0.5-0.8,1.2-1.5,2-1.9
			c0.8-0.5,1.7-0.7,2.7-0.7c0.9,0,1.7,0.2,2.5,0.6s1.4,0.9,2,1.5s1,1.3,1.3,2.2c0.3,0.8,0.5,1.7,0.5,2.6s-0.1,1.8-0.4,2.6
			c-0.3,0.8-0.7,1.5-1.2,2.2c-0.5,0.6-1.1,1.1-1.9,1.5C217,511.1,216.2,511.3,215.3,511.3z M214.7,509.4c0.7,0,1.2-0.1,1.8-0.4
			c0.5-0.3,1-0.6,1.4-1.1s0.7-1,0.9-1.6s0.3-1.2,0.3-1.8c0-0.7-0.1-1.3-0.4-1.9c-0.2-0.6-0.6-1.1-1-1.6c-0.4-0.4-0.9-0.8-1.4-1.1
			c-0.5-0.3-1.1-0.4-1.8-0.4c-0.4,0-0.8,0.1-1.2,0.2c-0.4,0.2-0.8,0.4-1.2,0.6c-0.4,0.3-0.7,0.6-1,0.9s-0.5,0.7-0.5,1.1v3.7
			c0.2,0.4,0.4,0.8,0.7,1.2c0.3,0.4,0.6,0.7,1,1s0.8,0.5,1.2,0.7C213.8,509.3,214.2,509.4,214.7,509.4z"/>
		<path fill="#7C7C7C" d="M229.6,511.3c-1,0-1.9-0.2-2.7-0.6s-1.5-0.9-2.1-1.5s-1-1.3-1.3-2.2c-0.3-0.8-0.5-1.7-0.5-2.6
			s0.2-1.8,0.5-2.6c0.3-0.8,0.8-1.5,1.4-2.2c0.6-0.6,1.3-1.1,2.1-1.5s1.7-0.6,2.7-0.6s1.9,0.2,2.7,0.6s1.5,0.9,2.1,1.5
			s1,1.3,1.4,2.2c0.3,0.8,0.5,1.7,0.5,2.6s-0.2,1.8-0.5,2.6c-0.3,0.8-0.8,1.5-1.4,2.2c-0.6,0.6-1.3,1.1-2.1,1.5
			C231.5,511.1,230.6,511.3,229.6,511.3z M225.3,504.5c0,0.7,0.1,1.3,0.3,1.9s0.5,1.1,0.9,1.5s0.9,0.8,1.4,1
			c0.5,0.3,1.1,0.4,1.7,0.4c0.6,0,1.2-0.1,1.7-0.4c0.5-0.2,1-0.6,1.4-1s0.7-1,0.9-1.6s0.3-1.2,0.3-1.9c0-0.7-0.1-1.3-0.3-1.9
			s-0.5-1.1-0.9-1.6c-0.4-0.4-0.9-0.8-1.4-1s-1.1-0.4-1.7-0.4c-0.6,0-1.2,0.1-1.7,0.4s-1,0.6-1.4,1.1c-0.4,0.4-0.7,1-0.9,1.6
			C225.4,503.2,225.3,503.9,225.3,504.5z"/>
		<path fill="#7C7C7C" d="M245.8,499.9c-1.1,0-2.1,0.3-2.9,0.9c-0.8,0.5-1.4,1.3-1.8,2.2v8.1h-2.2V498h2.1v3c0.5-0.9,1-1.7,1.8-2.2
			c0.7-0.6,1.5-0.9,2.4-0.9c0.2,0,0.3,0,0.4,0c0.1,0,0.2,0,0.3,0v2H245.8z"/>
		<path fill="#7C7C7C" d="M254.7,510.4c-0.1,0.1-0.3,0.1-0.5,0.2s-0.5,0.2-0.7,0.3s-0.6,0.2-0.9,0.2c-0.3,0.1-0.7,0.1-1,0.1
			c-0.8,0-1.5-0.2-2.1-0.7c-0.6-0.4-0.9-1.1-0.9-2.1v-8.8h-1.8V498h1.8v-4.4h2.2v4.4h2.9v1.7h-2.9v8.1c0,0.5,0.2,0.8,0.5,1.1
			c0.3,0.2,0.6,0.3,1,0.3s0.8-0.1,1.2-0.2s0.6-0.3,0.7-0.3L254.7,510.4z"/>
		<path fill="#7C7C7C" d="M265,497.7c-0.3,0-0.6,0-0.9-0.1s-0.6-0.2-0.8-0.3c-0.2-0.1-0.4-0.3-0.6-0.6c-0.2-0.2-0.2-0.5-0.2-0.9
			v-3.1h1.9v2.8c0,0.3,0.1,0.4,0.2,0.5s0.3,0.1,0.4,0.1V497.7z M268.7,497.7c-0.3,0-0.6,0-0.9-0.1s-0.6-0.2-0.8-0.3
			c-0.2-0.1-0.4-0.3-0.6-0.6c-0.2-0.2-0.2-0.5-0.2-0.9v-3.1h1.9v2.8c0,0.3,0.1,0.4,0.2,0.5s0.3,0.1,0.4,0.1V497.7z"/>
		<path fill="#7C7C7C" d="M275.9,511.3c-1.4,0-2.4-0.5-3.1-1.4s-1.1-2.3-1.1-4.1V498h2.2v7.4c0,2.7,0.9,4,2.8,4
			c0.9,0,1.8-0.3,2.5-0.9c0.8-0.6,1.4-1.4,1.8-2.4V498h2.2v10.4c0,0.5,0.2,0.8,0.7,0.8v1.9c-0.2,0-0.3,0.1-0.5,0.1
			c-0.1,0-0.3,0-0.4,0c-0.5,0-0.9-0.1-1.2-0.4c-0.3-0.2-0.4-0.6-0.5-1l-0.1-1.6c-0.6,1-1.4,1.7-2.3,2.3
			C278.1,511,277.1,511.3,275.9,511.3z"/>
		<path fill="#7C7C7C" d="M294.1,511.3c-1.1,0-2-0.3-2.9-0.8c-0.8-0.5-1.5-1.2-2-2v7.9H287V498h2v2.5c0.5-0.8,1.2-1.5,2-1.9
			c0.8-0.5,1.7-0.7,2.7-0.7c0.9,0,1.7,0.2,2.5,0.6s1.4,0.9,2,1.5s1,1.3,1.3,2.2c0.3,0.8,0.5,1.7,0.5,2.6s-0.1,1.8-0.4,2.6
			c-0.3,0.8-0.7,1.5-1.2,2.2c-0.5,0.6-1.1,1.1-1.9,1.5C295.7,511.1,294.9,511.3,294.1,511.3z M293.4,509.4c0.7,0,1.2-0.1,1.8-0.4
			c0.5-0.3,1-0.6,1.4-1.1s0.7-1,0.9-1.6c0.2-0.6,0.3-1.2,0.3-1.8c0-0.7-0.1-1.3-0.4-1.9c-0.2-0.6-0.6-1.1-1-1.6
			c-0.4-0.4-0.9-0.8-1.4-1.1c-0.5-0.3-1.1-0.4-1.8-0.4c-0.4,0-0.8,0.1-1.2,0.2c-0.4,0.2-0.8,0.4-1.2,0.6c-0.4,0.3-0.7,0.6-1,0.9
			s-0.5,0.7-0.5,1.1v3.7c0.2,0.4,0.4,0.8,0.7,1.2c0.3,0.4,0.6,0.7,1,1s0.8,0.5,1.2,0.7C292.5,509.3,292.9,509.4,293.4,509.4z"/>
		<path fill="#7C7C7C" d="M309.6,511.3c-1.1,0-2-0.3-2.9-0.8c-0.8-0.5-1.5-1.2-2-2v7.9h-2.2V498h2v2.5c0.5-0.8,1.2-1.5,2-1.9
			c0.8-0.5,1.7-0.7,2.7-0.7c0.9,0,1.7,0.2,2.5,0.6s1.4,0.9,2,1.5s1,1.3,1.3,2.2s0.5,1.7,0.5,2.6s-0.1,1.8-0.4,2.6
			c-0.3,0.8-0.7,1.5-1.2,2.2c-0.5,0.6-1.1,1.1-1.9,1.5S310.5,511.3,309.6,511.3z M308.9,509.4c0.7,0,1.2-0.1,1.8-0.4
			c0.5-0.3,1-0.6,1.4-1.1s0.7-1,0.9-1.6c0.2-0.6,0.3-1.2,0.3-1.8c0-0.7-0.1-1.3-0.4-1.9c-0.2-0.6-0.6-1.1-1-1.6
			c-0.4-0.4-0.9-0.8-1.4-1.1c-0.5-0.3-1.1-0.4-1.8-0.4c-0.4,0-0.8,0.1-1.2,0.2c-0.4,0.2-0.8,0.4-1.2,0.6c-0.4,0.3-0.7,0.6-1,0.9
			s-0.5,0.7-0.5,1.1v3.7c0.2,0.4,0.4,0.8,0.7,1.2c0.3,0.4,0.6,0.7,1,1s0.8,0.5,1.2,0.7C308,509.3,308.5,509.4,308.9,509.4z"/>
		<path fill="#7C7C7C" d="M324,511.3c-1,0-1.9-0.2-2.7-0.5c-0.8-0.4-1.5-0.8-2.1-1.5s-1-1.3-1.4-2.2s-0.5-1.7-0.5-2.6
			s0.2-1.8,0.5-2.6c0.3-0.8,0.8-1.5,1.4-2.2c0.6-0.6,1.3-1.1,2.1-1.5c0.8-0.4,1.7-0.5,2.7-0.5s1.9,0.2,2.7,0.6
			c0.8,0.4,1.5,0.9,2.1,1.5s1,1.3,1.3,2.1c0.3,0.8,0.5,1.7,0.5,2.5c0,0.2,0,0.4,0,0.5c0,0.2,0,0.3,0,0.4h-10.9
			c0,0.7,0.2,1.2,0.5,1.8s0.6,1,1,1.4s0.9,0.7,1.4,0.9c0.5,0.2,1,0.3,1.6,0.3c0.4,0,0.8-0.1,1.2-0.2c0.4-0.1,0.7-0.3,1.1-0.4
			c0.3-0.2,0.6-0.4,0.9-0.7s0.5-0.6,0.6-0.9l1.9,0.5c-0.2,0.5-0.5,0.9-0.9,1.3s-0.8,0.7-1.3,1s-1,0.5-1.6,0.7
			C325.2,511.2,324.6,511.3,324,511.3z M328.4,503.6c-0.1-0.6-0.2-1.2-0.5-1.7s-0.6-1-1-1.3c-0.4-0.4-0.8-0.7-1.4-0.9
			c-0.5-0.2-1.1-0.3-1.7-0.3s-1.1,0.1-1.7,0.3c-0.5,0.2-1,0.5-1.4,0.9s-0.7,0.8-1,1.3c-0.2,0.5-0.4,1.1-0.4,1.7H328.4z"/>
		<path fill="#7C7C7C" d="M339.9,499.9c-1.1,0-2.1,0.3-2.9,0.9c-0.8,0.5-1.4,1.3-1.8,2.2v8.1H333V498h2.1v3c0.5-0.9,1-1.7,1.8-2.2
			c0.7-0.6,1.5-0.9,2.4-0.9c0.2,0,0.3,0,0.4,0s0.2,0,0.3,0L339.9,499.9L339.9,499.9z"/>
		<path fill="#7C7C7C" d="M340.7,511v-2.8h1.9v2.8H340.7z"/>
		<path fill="#7C7C7C" d="M345.8,495.5v-2.8h2.2v2.8H345.8z M345.8,511v-13h2.2v13H345.8z"/>
		<path fill="#7C7C7C" d="M357.3,511.3c-1,0-1.9-0.2-2.7-0.6c-0.8-0.4-1.5-0.9-2.1-1.5s-1-1.3-1.3-2.2c-0.3-0.8-0.5-1.7-0.5-2.6
			s0.2-1.8,0.5-2.6c0.3-0.8,0.8-1.5,1.4-2.2c0.6-0.6,1.3-1.1,2.1-1.5c0.8-0.4,1.7-0.6,2.7-0.6s1.9,0.2,2.7,0.6
			c0.8,0.4,1.5,0.9,2.1,1.5s1,1.3,1.4,2.2c0.3,0.8,0.5,1.7,0.5,2.6s-0.2,1.8-0.5,2.6c-0.3,0.8-0.8,1.5-1.4,2.2
			c-0.6,0.6-1.3,1.1-2.1,1.5S358.3,511.3,357.3,511.3z M352.9,504.5c0,0.7,0.1,1.3,0.3,1.9c0.2,0.6,0.5,1.1,0.9,1.5s0.9,0.8,1.4,1
			c0.5,0.3,1.1,0.4,1.7,0.4s1.2-0.1,1.7-0.4c0.5-0.2,1-0.6,1.4-1s0.7-1,0.9-1.6c0.2-0.6,0.3-1.2,0.3-1.9c0-0.7-0.1-1.3-0.3-1.9
			c-0.2-0.6-0.5-1.1-0.9-1.6c-0.4-0.4-0.9-0.8-1.4-1s-1.1-0.4-1.7-0.4s-1.2,0.1-1.7,0.4s-1,0.6-1.4,1.1c-0.4,0.4-0.7,1-0.9,1.6
			C353.1,503.2,352.9,503.9,352.9,504.5z"/>
		<path fill="#7C7C7C" d="M380,493.2L368,511h-2.5l12-17.8H380z"/>
		<path fill="#7C7C7C" d="M386.9,511.3c-0.9,0-1.7-0.2-2.5-0.6s-1.4-0.9-2-1.5s-1-1.3-1.3-2.2c-0.3-0.8-0.5-1.7-0.5-2.6
			s0.1-1.8,0.4-2.6c0.3-0.8,0.7-1.5,1.2-2.2c0.5-0.6,1.2-1.1,1.9-1.5c0.7-0.4,1.5-0.5,2.4-0.5c1.1,0,2,0.3,2.8,0.8
			c0.8,0.6,1.5,1.2,2,2v-7.8h2.2v15.6c0,0.5,0.2,0.8,0.7,0.8v1.9c-0.2,0-0.3,0.1-0.5,0.1c-0.1,0-0.3,0-0.4,0c-0.5,0-0.9-0.1-1.2-0.4
			c-0.3-0.3-0.5-0.6-0.5-0.9l-0.1-1.2c-0.5,0.9-1.2,1.5-2.1,2S387.8,511.3,386.9,511.3z M387.4,509.4c0.4,0,0.8-0.1,1.2-0.2
			c0.4-0.2,0.8-0.4,1.2-0.6c0.4-0.3,0.7-0.6,1-0.9c0.3-0.4,0.5-0.7,0.5-1.1v-3.8c-0.2-0.4-0.4-0.8-0.7-1.2c-0.3-0.4-0.6-0.7-1-1
			s-0.8-0.5-1.2-0.7c-0.4-0.2-0.8-0.2-1.3-0.2c-0.7,0-1.2,0.1-1.8,0.4c-0.5,0.3-1,0.6-1.4,1.1s-0.7,1-0.9,1.6
			c-0.2,0.6-0.3,1.2-0.3,1.8c0,0.7,0.1,1.3,0.4,1.9c0.2,0.6,0.6,1.1,1,1.5s0.9,0.8,1.4,1C386.2,509.3,386.8,509.4,387.4,509.4z"/>
		<path fill="#7C7C7C" d="M404,511.3c-1,0-1.9-0.3-2.8-0.8c-0.8-0.5-1.5-1.2-2-2v2.5h-2v-18.3h2.2v7.8c0.6-0.9,1.2-1.5,2-2.1
			c0.8-0.5,1.7-0.8,2.8-0.8c0.9,0,1.7,0.2,2.4,0.6s1.3,0.9,1.8,1.5s0.9,1.4,1.2,2.2c0.3,0.8,0.4,1.7,0.4,2.5c0,0.9-0.2,1.8-0.5,2.6
			c-0.3,0.8-0.8,1.5-1.3,2.1c-0.6,0.6-1.2,1.1-2,1.5S404.9,511.3,404,511.3z M403.4,509.4c0.7,0,1.3-0.1,1.8-0.4s1-0.6,1.4-1.1
			s0.7-1,0.9-1.5c0.2-0.6,0.3-1.2,0.3-1.8c0-0.6-0.1-1.2-0.3-1.8c-0.2-0.6-0.5-1.1-0.9-1.6s-0.8-0.8-1.4-1.1
			c-0.5-0.3-1.1-0.4-1.7-0.4c-0.5,0-0.9,0.1-1.3,0.3s-0.8,0.4-1.2,0.7s-0.7,0.6-1,1s-0.5,0.8-0.7,1.2v3.8c0.1,0.4,0.3,0.8,0.5,1.2
			c0.3,0.4,0.6,0.7,1,0.9c0.4,0.3,0.8,0.5,1.2,0.6C402.6,509.3,403,509.4,403.4,509.4z"/>
		<path fill="#7C7C7C" d="M412.4,492.7c0.3,0,0.6,0,0.9,0.1s0.6,0.2,0.8,0.3s0.4,0.3,0.6,0.6c0.2,0.2,0.2,0.5,0.2,0.9v3.1H413V495
			c0-0.3-0.1-0.4-0.2-0.5s-0.3-0.1-0.4-0.1V492.7z M416.1,492.7c0.3,0,0.6,0,0.9,0.1s0.6,0.2,0.8,0.3s0.4,0.3,0.6,0.6
			c0.2,0.2,0.2,0.5,0.2,0.9v3.1h-1.9V495c0-0.3-0.1-0.4-0.2-0.5c-0.2-0.1-0.3-0.1-0.4-0.1V492.7z"/>
	</g>
	<g enable-background="new    ">
		<path fill="#7C7C7C" d="M460.3,511v-17.8h6.2c1.4,0,2.7,0.2,3.7,0.7s2,1.1,2.7,1.9s1.3,1.7,1.6,2.8s0.5,2.2,0.5,3.4
			c0,1.4-0.2,2.6-0.6,3.7s-1,2-1.7,2.8c-0.8,0.8-1.7,1.4-2.7,1.8c-1.1,0.4-2.2,0.6-3.5,0.6h-6.2V511z M472.8,502.1
			c0-1-0.1-1.9-0.4-2.8c-0.3-0.8-0.7-1.6-1.2-2.2s-1.2-1.1-2-1.4s-1.7-0.5-2.7-0.5h-3.9V509h3.9c1,0,1.9-0.2,2.7-0.5
			c0.8-0.4,1.5-0.8,2-1.5c0.5-0.6,0.9-1.3,1.2-2.2C472.7,504,472.8,503.1,472.8,502.1z"/>
		<path fill="#7C7C7C" d="M492,506.5c0,0.7-0.1,1.3-0.4,1.9s-0.7,1.1-1.1,1.5c-0.5,0.4-1,0.7-1.7,0.9c-0.6,0.2-1.3,0.3-2,0.3h-8.5
			v-17.8h8.9c0.6,0,1.2,0.1,1.7,0.4s0.9,0.6,1.3,1s0.6,0.9,0.8,1.5c0.2,0.5,0.3,1.1,0.3,1.6c0,0.9-0.2,1.7-0.7,2.5
			c-0.4,0.8-1.1,1.3-1.9,1.7c1,0.3,1.8,0.9,2.4,1.7C491.7,504.4,492,505.3,492,506.5z M480.6,495.2v5.9h5.7c0.4,0,0.8-0.1,1.1-0.2
			c0.3-0.2,0.6-0.4,0.9-0.6s0.4-0.6,0.6-0.9c0.1-0.4,0.2-0.7,0.2-1.1s-0.1-0.8-0.2-1.2c-0.1-0.4-0.3-0.7-0.5-1s-0.5-0.5-0.8-0.6
			c-0.3-0.2-0.7-0.2-1-0.2L480.6,495.2L480.6,495.2z M489.7,506.1c0-0.4-0.1-0.8-0.2-1.2c-0.1-0.4-0.3-0.7-0.6-1s-0.5-0.5-0.9-0.7
			c-0.3-0.2-0.7-0.2-1.1-0.2h-6.4v6.1h6.2c0.4,0,0.8-0.1,1.2-0.2s0.7-0.4,0.9-0.7c0.3-0.3,0.5-0.6,0.6-1
			C489.6,506.8,489.7,506.5,489.7,506.1z"/>
		<path fill="#7C7C7C" d="M510.6,511v-13.8l-5.9,10.6h-1.3l-5.9-10.6V511h-2.3v-17.8h2.4l6.4,11.6l6.5-11.6h2.4V511H510.6z"/>
		<path fill="#7C7C7C" d="M527.6,497c-0.2-0.2-0.5-0.5-0.8-0.7s-0.7-0.4-1.1-0.6c-0.4-0.2-0.9-0.3-1.4-0.4s-1-0.2-1.5-0.2
			c-1.4,0-2.4,0.3-3,0.8s-1,1.2-1,2.1c0,0.5,0.1,0.9,0.3,1.2c0.2,0.3,0.5,0.6,0.9,0.8c0.4,0.2,0.9,0.4,1.5,0.6s1.3,0.3,2.1,0.5
			c0.9,0.2,1.8,0.4,2.5,0.7c0.7,0.3,1.4,0.6,1.9,1s0.9,0.9,1.2,1.4c0.3,0.6,0.4,1.2,0.4,2c0,0.9-0.2,1.6-0.5,2.2s-0.8,1.1-1.4,1.6
			c-0.6,0.4-1.3,0.7-2,0.9c-0.8,0.2-1.6,0.3-2.6,0.3c-1.4,0-2.7-0.2-3.9-0.6s-2.3-1-3.3-1.9l1.1-1.9c0.3,0.3,0.6,0.6,1,0.9
			s0.9,0.5,1.5,0.8c0.5,0.2,1.1,0.4,1.8,0.6s1.3,0.2,2,0.2c1.3,0,2.3-0.2,3-0.7s1.1-1.1,1.1-2c0-0.5-0.1-0.9-0.3-1.3s-0.6-0.6-1-0.9
			s-1-0.5-1.6-0.7s-1.4-0.4-2.2-0.6c-0.9-0.2-1.7-0.5-2.4-0.7s-1.3-0.6-1.7-0.9c-0.5-0.4-0.8-0.8-1-1.3s-0.4-1.1-0.4-1.8
			c0-0.9,0.2-1.6,0.5-2.3c0.3-0.7,0.8-1.2,1.3-1.7c0.6-0.5,1.2-0.8,2-1s1.6-0.3,2.6-0.3c1.2,0,2.3,0.2,3.3,0.6s1.8,0.9,2.6,1.5
			L527.6,497z"/>
	</g>
</g>
</svg>
