<?xml version="1.0" encoding="utf-8"?>
<!-- Generator: Adobe Illustrator 18.0.0, SVG Export Plug-In . SVG Version: 6.00 Build 0)  -->
<!DOCTYPE svg PUBLIC "-//W3C//DTD SVG 1.1//EN" "http://www.w3.org/Graphics/SVG/1.1/DTD/svg11.dtd">
<svg version="1.1" id="Layer_1" xmlns="http://www.w3.org/2000/svg" xmlns:xlink="http://www.w3.org/1999/xlink" x="0px" y="0px"
	 viewBox="0 0 163.3 125.6" style="enable-background:new 0 0 163.3 125.6;" xml:space="preserve">
<g>
	<polygon style="fill:#E74039;" points="142.6,69.4 131.3,76.3 131.3,78.8 142.6,81.8 153.1,81.8 162,76.8 159.2,74.4 	"/>
	<line style="fill:#FFFFFF;" x1="128.2" y1="48.1" x2="129.3" y2="56.2"/>
	<line style="fill:#FFFFFF;" x1="128.2" y1="48.1" x2="129.3" y2="56.2"/>
	<path style="fill:#D78556;" d="M120.7,71.7l-0.4-22.5l3.8-13.2l-6.3-7.9l3.7-8.1l-2.7-7.3l-7-2.6l-7.3,2.5L85.8,5.9H78l-8-4.2
		l-5.5,5.6L53.2,17.7l-2.3,2.5h-6.8c0,0-4.4,2.5-5.4,5.3c-1,2.8-2.9,7.2-2.9,7.2l1.6,6.8l3.8,6.5v5.7l-6,2.8v6.2c0,0,4.8-4,6.5-1.4
		c2.8,12.1,33.4,19.8,33.4,19.8s1,9.6,18.8,1C117.8,85.7,120.7,71.7,120.7,71.7"/>
	<polygon style="fill:#E74039;" points="107.6,19.9 112.9,19 111,24.1 	"/>
	<polygon style="fill:#F2F0F1;" points="52.7,50.9 56.2,53.6 56.2,56.3 52.3,57.6 48.7,53.6 48.7,49.5 	"/>
	<path style="fill:#E74039;" d="M142.2,52.3l5.6,6.2l1,12.9c0,0-1.1,16.3-6.3,24c-5.3,7.7-25,26.1-49.6,27.4
		c-24.5,1.3-43.5-4.1-48.5-7.9c-5-3.8-19.6-16.1-20.6-21.3c-1-5.2,1.9-21.9,5.5-25.8c3.5-3.9,8.3-8.6,12.3-8.3c4,0.3,5,7.1,5,7.1
		L62.2,75l12.9,4.3l2.7,4.8h3.9l10.7-3.8h11.1l11-2.1l6.2-6.6l8-3.9l7.3-7.5L142.2,52.3z"/>
	<polygon style="fill:#E74039;" points="112,85.9 134.1,93.8 159.8,102.5 159.8,108.1 140.1,117.4 118.8,121.3 102.8,118.7 
		89.5,114.6 80.6,110.2 76.3,106.2 77.2,103.2 103.2,88.5 109.3,85.6 	"/>
	<polygon style="fill:#E74039;" points="120.8,61 131.4,65.2 120.8,72.3 	"/>
	<polygon style="fill:#652A1D;" points="37.8,26.6 41.7,20.3 50.2,19 56.7,25.6 62.2,26.5 74.6,24.1 83,28 88.3,34.3 90.6,41.6 
		95,42.7 106,42.2 117.8,37.7 122.3,31.9 122.3,42 120.3,47.7 123.4,50.7 135.2,43.8 135.9,51.1 122.3,60.9 111.9,63.4 106.1,62.6 
		102.4,56.7 98.8,49.5 88.3,48.7 84.2,54.5 76.3,57.8 68.2,56.7 61.1,52.1 62.2,49.5 61.1,45.5 57.7,43.3 56.7,41.1 51.2,39.2 
		47,42.2 46.3,47.7 40.7,45.3 37.3,40 35.5,33.2 	"/>
	<path style="fill:#F2F0F1;" d="M83,41.1c0,5.7-4.6,10.4-10.4,10.4c-5.7,0-10.4-4.6-10.4-10.4c0-5.7,4.6-10.4,10.4-10.4
		C78.3,30.7,83,35.4,83,41.1"/>
	<path style="fill:#F2F0F1;" d="M52.3,34.4c0,4.3-3.5,7.9-7.9,7.9c-4.3,0-7.9-3.5-7.9-7.9c0-4.3,3.5-7.9,7.9-7.9
		C48.8,26.5,52.3,30,52.3,34.4"/>
	<polygon style="fill:#E74039;" points="28.1,77.8 23.7,56.3 20.1,56.3 9,66.5 7.9,77.8 17.6,85.6 	"/>
	<polygon style="fill:#E74039;" points="31.4,82.1 44.3,78.1 53.3,82.6 56.2,93.7 53.8,103.6 51.7,103.6 31.4,91.7 	"/>
	<polygon style="fill:#E74039;" points="29.7,93.4 29.4,105.8 20,112.2 4.3,107.2 2.7,103.6 20,89.1 	"/>
	<polygon style="fill:#E74039;" points="28.1,79 31.4,83.8 30.6,91.7 28.1,92.7 23.7,91.7 17.5,87.3 20,83 	"/>
	<polygon style="fill:#E74039;" points="49.7,41.6 51.7,44.2 56.2,44.2 57.5,42.9 55.5,40.7 51.2,39.4 	"/>
	<path style="fill:#383939;" d="M71.7,41.7c0,1.2-1,2.1-2.1,2.1c-1.2,0-2.1-1-2.1-2.1c0-1.2,1-2.1,2.1-2.1
		C70.8,39.5,71.7,40.5,71.7,41.7"/>
	<path style="fill:#383939;" d="M42.6,34.4c0,0.9-0.7,1.6-1.6,1.6c-0.9,0-1.6-0.7-1.6-1.6c0-0.9,0.7-1.6,1.6-1.6
		C41.9,32.8,42.6,33.5,42.6,34.4"/>
	<path style="fill:#383939;" d="M18.1,88.1c-0.4-0.6-0.6-1.2-0.6-1.8c0-0.8,0.4-1.6,1-2.5"/>
	<polygon style="fill:#F2F0F1;" points="52.7,50.9 56.2,53.6 56.2,56.3 52.3,57.6 48.7,53.6 48.7,49.5 	"/>
	<path style="fill:#F2F0F1;" d="M83,41.1c0,5.7-4.6,10.4-10.4,10.4c-5.7,0-10.4-4.6-10.4-10.4c0-5.7,4.6-10.4,10.4-10.4
		C78.3,30.7,83,35.4,83,41.1"/>
	<path style="fill:#F2F0F1;" d="M52.3,34.4c0,4.3-3.5,7.9-7.9,7.9c-4.3,0-7.9-3.5-7.9-7.9c0-4.3,3.5-7.9,7.9-7.9
		C48.8,26.5,52.3,30,52.3,34.4"/>
	<path style="fill:#383939;" d="M71.7,41.7c0,1.2-1,2.1-2.1,2.1c-1.2,0-2.1-1-2.1-2.1c0-1.2,1-2.1,2.1-2.1
		C70.8,39.5,71.7,40.5,71.7,41.7"/>
	<path style="fill:#383939;" d="M42.6,34.4c0,0.9-0.7,1.6-1.6,1.6c-0.9,0-1.6-0.7-1.6-1.6c0-0.9,0.7-1.6,1.6-1.6
		C41.9,32.8,42.6,33.5,42.6,34.4"/>
	<path style="fill:#383939;" d="M18.5,83.8c-0.6,0.9-1,1.7-1,2.5c0,0.6,0.2,1.2,0.6,1.8"/>
	<polygon style="fill:#FFFFFF;" points="18.1,88.1 29.7,93.4 31,83 28,79.2 21.2,82.4 	"/>
	<g>
		<path style="fill:#221E20;" d="M155.7,98.6c-0.3-0.1-0.5-0.2-0.7-0.3c-1.1-0.5-4.9-1.8-10-3.5c1.7-3.5,3-6.7,4-9.7
			c4-0.8,7.8-2.3,11.5-4.5c0.8-0.5,3.1-1.9,2.9-4.2c-0.2-2.2-2.4-3-3.6-3.5l-0.3-0.1c-0.5-0.2-1.9-0.7-4.4-1.6
			c-1.1-0.4-2.3-0.8-3.5-1.2c0-3.4-0.5-6.7-1.2-9.9c-1.6-7.4-4.8-10.3-5.1-10.6c-0.5-0.4-1.1-0.6-1.7-0.5c-0.6,0.1-1.1,0.4-1.5,0.9
			c-0.1,0.1-4.5,6.5-10.2,12.2l-4.7-1.6c2-1.4,3.9-2.9,5.5-4.3c1.7-1.4,3.2-2.7,4.2-3.1l1.2-0.5l0.1-1.3c0.2-2.1,0.3-5.9-0.9-8.5
			l-0.3-0.7l-0.7-0.3c-4.9-2.1-8.4,2.1-9.9,4c-0.2,0.2-0.4,0.5-0.5,0.6c-0.2,0.2-0.4,0.4-0.6,0.6c-0.7,0.8-0.8,0.9-1.4,1.1
			c-0.3,0.1-0.4,0.1-0.5,0.1c-0.2-0.2-0.4-0.9-0.6-2.3c0.2-0.2,0.4-0.4,0.6-0.6c0.7-0.9,1.3-1.9,1.8-2.9c1.7-3.9,0.8-10.4-2.7-12.5
			l-1.6-1c-0.1-0.3-0.1-0.6-0.2-0.9c2.7-3.6,4.2-11.9,0.8-15.9c-3.5-4.1-12-4.8-16.3-2.3c-7.6-4.2-16.7-6.3-25.5-5.7c0,0,0,0,0,0
			c-0.2-0.2-6-5.6-11.4-3.7c-5.4,1.8-6.8,8.7-6.8,9c0,0.1,0,0.2,0,0.3c-4.8,2.8-8.1,5.9-9.8,7.8c-0.8-0.3-1.7-0.5-2.8-0.5
			c-3.4-0.3-6.9,1-9.4,3.2c-2.3,2.1-3.5,4.9-3.7,8.4c-1.1,1.7-1.8,3.7-1.8,5.7c0,2.5,0.9,4.8,2.5,6.7c0.5,1.8,1.4,3.8,3,5.3
			c0,0.2,0.1,1.3,0.2,3.2c-1.6,0.5-5,2-6.7,5.1c-1,1.9-1.2,4.1-0.5,6.5c-1.6,1.4-3.1,3-4.3,4.7c-1-4.4-1.9-7.4-2.6-9.1
			c-0.9-2.3-2.5-2.9-3.5-3.1c-4.5-0.7-10.4,6.3-12.1,8.5c-0.5,0.7-6.6,8.2-3.2,16c1.5,3.4,5.1,6.1,8.7,8.1c0,0,0,0.1,0,0.1
			c0,0.9,0.3,1.9,0.9,2.9c-5.6,4.2-12.4,9.6-14.8,12.5c-1.7,1.8-1.5,3.6-1.2,4.5c1.3,4.3,10.2,6.5,13,7.1c0.3,0.1,2.1,0.5,4.5,0.5
			c3.4,0,8-0.8,11.3-4.6c0.8-0.9,1.4-2,2-3.4c4.5,5.3,10.5,9.7,17.6,12.9c8,3.6,22.8,7,38.4,7c2.3,0,4.6-0.1,6.9-0.2
			c4.7-0.3,9.8-1,15.1-2.3c2.3,0.2,4.7,0.4,7.3,0.4c11.3,0,25.6-2.7,40.9-12c2.4-1.5,5.6-3.9,5.3-7C162,101.1,158.2,99.6,155.7,98.6
			 M150.4,74.1c1.2,0.4,2.3,0.8,3.3,1.2c2,0.7,3.7,1.3,4.1,1.5l0.3,0.1c0,0,0,0,0,0c-3.8,2.3-7.8,3.7-11.9,4.3
			c-7.4,0.3-12.9-3-14.3-3.9c2.9-1.8,8.5-5,9.3-5.5c0.4-0.2,1.4-0.6,2.1-0.3c1,0.4,2.2,0.9,3.7,1.3v0c0,0-0.1,0,0,0
			C148.2,73.3,149.3,73.7,150.4,74.1 M128.2,65.4c-1.9,1.6-3.9,3.1-5.9,4.1v-6.2L128.2,65.4z M129.5,48.5c1.5-1.9,2.7-3,4-2.9
			c0.3,1.1,0.4,2.6,0.3,4.3c-1.1,0.7-2.4,1.8-3.9,3l-0.6-4.2C129.5,48.5,129.5,48.5,129.5,48.5 M125.2,52.1c1-0.4,1.6-0.8,2.1-1.3
			l0.5,3.8c-1.8,1.5-3.7,3.1-6.1,4.3c-0.1,0-0.1,0-0.2,0.1c-0.4,0.2-0.8,0.4-1.3,0.6c-1.5,0.7-3.8,1.6-6.8,2.6
			c-2.9,1-5.3,0.5-7.1-1.2c-1.5-1.4-2.1-3.1-2.1-3.2c-0.2-0.5-1.5-3.7-3.3-6.3c2.9-0.1,5.8-0.3,8-0.7c4.2-0.7,7.2-2.1,9.4-3.5
			c0.4,2,1,3.8,2.6,4.7C122.2,52.7,123.6,52.7,125.2,52.1 M77.9,81.1c0,0,0-0.1,0-0.1c0-0.1,0-0.3,0-0.4c0.1-0.1,0.1-0.2,0.2-0.3
			c0.5-0.7,1.5-1.1,2.5-1.1c0.4,0,0.8-0.3,0.8-0.8c0-0.4-0.3-0.8-0.8-0.8c-1.2,0-2.4,0.5-3.3,1.3c-0.3-0.8-0.3-1.4,0-1.9
			c1-1.6,5.5-2.1,8.2-1.9c1.1,0.1,2-0.8,2.1-1.8c0.1-1.1-0.8-2-1.8-2.1c-1.5-0.1-9.1-0.3-11.7,3.7c-0.3,0.4-0.5,1-0.7,1.6
			C61.9,75,45.5,65.6,43.7,57.5c-0.1-3.8-0.3-7-0.4-9.1c0.9,0.2,1.8,0.4,2.9,0.4c0.1,0,0.1,0,0.2,0c0.2,0.3,0.4,0.5,0.7,0.7
			c0,0.1,0,0.1,0,0.1V53c0,1.6,2.1,5.7,6.7,5.7c1.5,0,2.4-0.6,2.9-1.1c0.7-0.7,1.1-1.7,1.2-3c1-0.1,2-0.3,2.8-0.8
			c3.4,3.6,8.1,5.6,13,5.6c6.7,0,12.5-3.6,15.6-9c1.2,0.5,3.4,0.9,7.8,1.1c0.3,0,0.7,0,1,0c1.6,1.8,3.2,5,4,7.1
			c0,0.1,2.3,6.4,8.5,6.4c1.1,0,2.3-0.2,3.6-0.6c1.4-0.5,2.5-0.9,3.5-1.2v9.2c-1.2,1.9-6,8.1-18.2,6.2c-6.6-1.4-12.3,1.1-14.7,2.2
			c-0.3,0.1-0.6,0.3-0.7,0.3c-0.1,0-0.3,0.1-0.5,0.2c-2.6,0.9-4.3,1.1-5.2,0.6C78.3,81.7,78.1,81.6,77.9,81.1
			C77.9,81,77.9,81,77.9,81.1C77.9,81,77.9,81,77.9,81.1 M77.8,81.3c0,0,0,0.1-0.1,0.1C77.8,81.4,77.8,81.3,77.8,81.3L77.8,81.3z
			 M45.4,46c-2.5-0.2-4.3-1.3-5.5-3.4c1.3,0.7,2.9,1.2,4.5,1.2c0.4,0,0.9,0,1.3-0.1c-0.3,0.6-0.4,1.3-0.4,1.9
			C45.4,45.8,45.4,45.9,45.4,46 M52,45.5c0.6,0.2,1.3,0.3,2,0.3c1.2,0,2.4-0.3,3.3-0.8h0.3c2,0,3.5,1.6,3.5,3.5
			c0,1.9-1.6,3.5-3.5,3.5c-1.8,0-3.9-1.3-5-3.1c-0.1-0.3-0.3-0.5-0.6-0.6c-0.3-0.2-0.7-0.2-1.1,0c-0.1,0-0.3,0-0.4,0
			c-1.5,0-2.7-1.2-2.7-2.7c0-1,0.6-1.9,1.5-2.4C49.8,44.3,50.8,45.1,52,45.5 M50.6,41c0.2-0.2,0.7-0.3,1.4-0.3
			c1.4,0,3.5,0.5,4.5,1.9c0.2,0.3,0.1,0.4,0,0.5c-0.5,0.7-2.6,1.1-3.9,0.6c-1.2-0.4-2-1.5-2.1-2.2C50.5,41.2,50.5,41,50.6,41
			 M55.4,54.3c0,0.7-0.2,1.2-0.5,1.5c-0.1,0.1-0.3,0.3-0.9,0.3c-0.3,0-0.6,0-0.9-0.1v-2.8C53.9,53.6,54.6,54,55.4,54.3 M50.9,51v3.5
			c-0.5-0.7-0.8-1.3-0.8-1.6v-2.2c0.1,0,0.2,0,0.3,0c0.1,0,0.1,0,0.2,0C50.8,50.8,50.8,50.9,50.9,51 M121.1,35.1
			c0,0,0.4,4.1,0.4,4.1c-0.1,0.5-0.2,0.9-0.4,1.2c-1.7,3.7-6.3,6.5-12.5,7.6c-6.4,1.1-15.4,0.8-18-0.1l0.1-0.3
			c0.4-1.2,0.7-2.4,0.9-3.6l0,0c1.3,0.3,3.4,0.4,6.8,0.4c4.8-0.1,9.4-0.6,12.4-1.4C115.9,41.5,119.4,38.2,121.1,35.1L121.1,35.1z
			 M104.1,16c0.6-1.6,2.5-2.8,5.1-3.2c3.4-0.6,6.8,0.3,8.4,2.1c1.4,1.6,1.3,3.9,1.1,5.5c-0.5,3.4-2.4,6.5-3.4,7.1
			c-0.8,0.5-2.4,0.6-3.3,0.1c-0.5-0.3-0.8-0.7-0.8-1.4c0-0.9,1.9-4.7,3.6-7.6c0.2-0.4,0.2-0.8-0.1-1.1c-0.2-0.2-0.5-0.4-0.7-0.4
			c-0.1,0-0.2,0-0.3,0.1c-1.5,0.5-5.7,1.9-7.8,1.7c-0.8-0.1-1.5-0.4-1.8-1C103.8,17.5,103.8,16.9,104.1,16 M110.5,22.7l-1.6-2
			c1-0.2,2.1-0.5,3-0.8C111.4,20.8,110.9,21.8,110.5,22.7 M69.3,4.1c1.4-0.5,3.1,0.1,4.6,0.8C71,5.5,68.4,6.3,66,7.3
			C66.7,6,67.7,4.6,69.3,4.1 M79.5,8c8.3-0.6,16.9,1.4,24,5.4c-0.6,0.6-1,1.2-1.3,1.9c-0.7,1.8-0.3,3,0.2,3.8
			c0.7,1.1,1.9,1.8,3.3,1.9c0.3,0,0.6,0,0.9,0l2.9,3.8c-0.2,0.6-0.3,1.2-0.3,1.6c0,1.3,0.7,2.4,1.8,3c0.7,0.4,1.6,0.6,2.4,0.6
			c1.1,0,2.1-0.3,2.8-0.7c0.1-0.1,0.2-0.1,0.3-0.2c0.6,2,1,4.1,1.1,6.1c-1.4,2-3.9,4.1-7.7,5.2c-5.7,1.6-16.1,1.5-18.3,0.9
			c-0.1-9.8-8.1-17.7-18-17.7c-0.9,0-1.7,0.1-2.5,0.2c-1,0.1-2.1,0.3-3.3,0.5c-3.3,0.7-7.5,1.5-10.3-0.5c-1.5-1.1-2.3-1.8-3-2.4
			c-0.3-0.2-0.6-0.5-0.8-0.7C56.2,17.8,64.8,9.2,79.5,8 M52.8,23.4c0.7,0.6,1.6,1.4,3.2,2.5c3.7,2.7,8.8,1.7,12.4,0.9
			c1.1-0.2,2.2-0.5,3-0.5l0.1,0c0.7-0.1,1.5-0.2,2.2-0.2C82.2,26.2,89,33,89,41.4c0,8.4-6.8,15.2-15.2,15.2c-4.2,0-8.2-1.7-11-4.7
			c0.6-0.9,0.9-1.9,1-3c2.2,2.5,5.3,4.1,8.9,4.1c6.5,0,11.8-5.3,11.8-11.8c0-6.5-5.3-11.8-11.8-11.8c-6.5,0-11.8,5.3-11.8,11.8
			c0,0.9,0.1,1.7,0.3,2.5c-0.7-0.5-1.6-0.8-2.5-1c0-0.4-0.2-0.9-0.4-1.3c0,0,0,0-0.1-0.1c-1.2-1.6-3.4-2.4-5.3-2.6
			c0.7-1.3,1.1-2.9,1.1-4.5c0-5.2-4.3-9.5-9.5-9.5c-1.7,0-3.2,0.4-4.6,1.2c0.4-1.2,1.1-2.1,2-2.9c0.4-0.4,0.9-0.7,1.4-1
			c1.5-0.8,3.3-1.2,5.1-1.1c1,0.1,1.9,0.6,2.6,1l0.2,0.1C51.7,22.5,52.2,22.8,52.8,23.4 M63.2,41.3c0-5.2,4.2-9.4,9.4-9.4
			c5.2,0,9.4,4.2,9.4,9.4c0,5.2-4.2,9.4-9.4,9.4C67.4,50.7,63.2,46.5,63.2,41.3 M37.3,34.3c0-4,3.2-7.2,7.2-7.2c4,0,7.2,3.2,7.2,7.2
			c0,2-0.8,3.7-2.1,5c0,0-0.1,0-0.1,0.1c-0.2,0.1-0.3,0.3-0.4,0.4c-1.2,1-2.8,1.6-4.6,1.6C40.5,41.5,37.3,38.3,37.3,34.3 M36.3,56.4
			c0.7-1.4,2.2-2.3,3.4-2.8c0,0.9,0.1,1.8,0.1,2.7c-1.4,0.6-2.7,1.3-4,2.1C35.8,57.7,36,57,36.3,56.4 M10.6,76.4
			c-2.4-5.5,2.5-11.5,2.6-11.5c0,0,0,0,0.1-0.1c3.4-4.4,6.9-7,8-7h0c0,0,0.1,0.2,0.2,0.4c0,0,0,0.1,0.1,0.1
			c0.6,1.3,1.6,4.6,3.3,12.8c0.5,2.3,0.9,4.6,1.3,6.7c-1.6,0.5-3.3,1.4-4.7,2.4c-0.7,0.5-1.9,1.5-2.9,2.8
			C15.1,81.3,11.7,79,10.6,76.4 M27.7,100.9c-0.4,2.4-1.1,4.2-2.1,5.4c-3.9,4.6-11.4,2.8-11.5,2.8c0,0-0.1,0-0.1,0
			c-4.6-1-9.3-2.9-9.8-4.1c0-0.1,0.1-0.2,0.3-0.3c0,0,0.1-0.1,0.1-0.1c2.2-2.6,9.7-8.5,15.8-13c0.6,0.5,1.1,0.9,1.4,1.1
			c0.8,0.6,3.3,2.1,5.6,2.1c0.2,0,0.4,0,0.5,0C28.1,96.5,28.1,98.7,27.7,100.9 M29.7,87.6c-0.2,2.7-1,3.9-1.4,4c0,0-0.1,0-0.1,0.1
			c-0.7,0.3-2.6-0.1-4.7-1.5c-2.2-1.4-3.3-3.1-3.3-3.9c0-0.8,1.1-2.4,3.1-3.9c1.9-1.4,3.8-2.2,4.8-2.2c0.1,0,0.2,0,0.3,0
			C28.9,80.5,30,83.8,29.7,87.6 M32.2,83.5c4.4-2,11.1-4.3,15-2.8C53.2,83,54,91.1,54,91.2c0.6,4.6,0.4,10.2-0.9,11.2
			c-0.2,0.1-0.5,0.1-1-0.1c0,0-0.1,0-0.1,0c-3.9-1.5-14.2-8.3-20-12.2c0.3-1.5,0.4-3,0.4-3.9C32.4,85.3,32.4,84.4,32.2,83.5
			 M86.5,121.3c-14.8,0-28.5-3.2-36.2-6.6c-8.3-3.7-14.3-8.9-18.1-14.4c0.2-2.1,0.3-4.3,0.2-6.3c6,4,14.7,9.7,18.6,11.2
			c0.7,0.3,1.4,0.5,2,0.5c0.9,0,1.6-0.3,2.1-0.7c0.9-0.6,3.6-3.5,2.2-14.1c0-0.4-1-10-8.8-13.1c-5-2-12.3,0.6-16.9,2.6
			c-0.2-0.6-0.5-1.1-0.8-1.5c-0.4-2.1-0.8-4.4-1.3-6.9c2.1-5,5.9-8.8,11.3-11.4c2.5,6,9.5,10.6,13.7,13.1c6.4,3.7,13.6,6.1,19.3,6.7
			c0.1,0.2,0.2,0.5,0.3,0.7c0,0,0,0,0,0.1c0,0.1,0,0.3,0,0.4c0.4,2,1.6,3,2.4,3.5c1,0.6,2.1,0.8,3.2,0.8c2,0,4.1-0.7,5.1-1
			c0.2-0.1,0.3-0.1,0.4-0.1c0.3-0.1,0.7-0.2,1.2-0.5c2.1-0.9,7-3.1,12.4-1.9c0,0,0.1,0,0.1,0c13.7,2.1,19.8-4.5,21.9-7.5
			c0.5-0.2,1-0.3,1.5-0.5h0v0c9-3.7,17.9-14.7,21.6-19.5c0.8,1.3,1.7,3.3,2.3,6.2c0.6,2.7,1.1,5.7,1.1,9.1c-1.1-0.4-2.1-0.8-3-1.1
			c-1.3-0.5-2.8-0.4-4.3,0.4l0,0c-1,0.5-7.6,4.4-10.2,6.1c0,0-0.1,0-0.1,0.1c-0.5,0.4-0.8,1.1-0.8,1.7c0,0.8,0.5,1.5,1.3,2
			c3,2.2,8.4,4.5,14.7,4.6c-1.1,3.2-2.6,6.8-4.6,10.8c-8.5-2.9-19.1-6.7-26.2-9.5c-3.9-1.6-7.7,0-9.7,1.1c-2.5,1.4-21,12-28,16.7
			c0,0-0.1,0-0.1,0.1c-0.9,0.7-1.4,1.7-1.3,2.8c0.1,1.4,1,2.8,2.4,3.7c5.6,4,14.2,8.2,24.5,10.5C96.8,120.9,91.6,121.3,86.5,121.3
			 M154.7,107.7c-14.7,9-28.4,11.5-39.1,11.4c-2.7-0.1-5.5-0.4-8.2-0.8c-12.3-1.9-22.7-7-28.4-11c0,0,0,0-0.1,0
			c-0.8-0.5-1.2-1.2-1.2-1.5c0-0.2,0.1-0.3,0.2-0.5c7-4.6,25.2-15.1,27.8-16.5l0,0c1.5-0.8,4.5-2.1,7.4-0.9c7.5,3,18.9,7,27.6,10
			l2.9,1.1c4.9,1.7,8.9,3.1,9.9,3.5c0.2,0.1,0.5,0.2,0.8,0.3c0.5,0.2,1.6,0.6,2.5,1.1c0.6,0.4,1.2,0.8,1.4,1.2
			C157.9,105.1,157.3,106.1,154.7,107.7"/>
	</g>
</g>
</svg>
