<?xml version="1.0" standalone="no"?>
<!DOCTYPE svg PUBLIC "-//W3C//DTD SVG 20010904//EN"
 "http://www.w3.org/TR/2001/REC-SVG-20010904/DTD/svg10.dtd">
<svg version="1.0" xmlns="http://www.w3.org/2000/svg"
 width="260.000000pt" height="260.000000pt" viewBox="0 0 260.000000 260.000000"
 preserveAspectRatio="xMidYMid meet">
<metadata>
Created by potrace 1.11, written by Peter Selinger 2001-2013
</metadata>
<g transform="translate(0.000000,260.000000) scale(0.100000,-0.100000)"
fill="#000000" stroke="none">
<path d="M1075 2574 c-480 -86 -878 -440 -1019 -905 -56 -186 -73 -429 -41
-615 65 -381 294 -715 627 -915 45 -27 85 -49 90 -49 4 0 8 121 8 269 l0 270
29 17 c56 33 65 64 69 232 4 137 6 153 21 146 9 -3 41 -14 71 -24 41 -13 56
-23 61 -41 19 -73 70 -126 142 -149 29 -9 37 -17 37 -36 0 -58 81 -86 117 -40
l19 24 21 -24 c41 -46 98 -26 120 40 6 20 19 32 47 41 21 7 52 26 68 42 32 30
68 92 68 118 0 8 9 15 20 15 11 0 42 9 70 19 l50 19 0 -155 c0 -170 7 -195 61
-227 l29 -17 0 -270 c0 -148 4 -269 8 -269 5 0 45 22 90 49 333 200 562 534
627 915 19 114 19 329 0 442 -96 557 -519 984 -1069 1079 -110 19 -332 18
-441 -1z m380 -449 c224 -57 417 -240 484 -458 11 -37 23 -97 27 -132 6 -54
10 -65 25 -65 17 0 19 -9 19 -75 0 -68 -2 -75 -20 -75 -19 0 -20 -7 -20 -220
l0 -221 25 -24 c13 -14 33 -25 43 -25 48 0 65 -88 23 -121 -35 -28 -168 -27
-205 2 l-26 20 0 210 c0 115 -4 209 -8 209 -5 0 -17 -9 -28 -21 -64 -71 -227
-100 -335 -60 -32 12 -78 40 -103 62 l-46 41 -35 -31 c-66 -57 -132 -84 -220
-89 -99 -5 -170 19 -239 79 l-46 41 0 -220 0 -221 -26 -20 c-37 -29 -170 -30
-205 -2 -42 33 -25 121 23 121 10 0 30 11 43 25 l25 24 0 221 c0 213 -1 220
-20 220 -18 0 -20 7 -20 75 0 66 2 75 19 75 15 0 19 11 25 65 16 159 80 291
200 411 64 64 99 90 166 122 47 23 110 48 140 56 74 20 240 20 315 1z m-205
-1115 c26 -26 80 -26 113 0 24 19 29 20 54 6 16 -8 56 -20 91 -26 41 -8 62
-17 62 -27 0 -7 -17 -32 -38 -55 -34 -36 -45 -42 -93 -45 -46 -4 -60 -1 -91
21 l-38 25 -36 -24 c-74 -50 -177 -24 -217 55 l-17 35 42 8 c33 7 117 33 146
46 1 0 11 -8 22 -19z"/>
<path d="M945 1587 c-49 -23 -101 -88 -115 -145 -34 -143 100 -285 239 -253
97 22 171 111 171 207 0 58 -44 139 -93 172 -48 32 -152 41 -202 19z"/>
<path d="M1469 1577 c-56 -30 -100 -99 -107 -166 -9 -102 64 -199 169 -222
139 -32 273 110 239 253 -15 58 -67 124 -117 145 -51 21 -133 17 -184 -10z"/>
</g>
</svg>
