<?xml version="1.0" encoding="utf-8"?>
<!-- Generator: Adobe Illustrator 18.0.0, SVG Export Plug-In . SVG Version: 6.00 Build 0)  -->
<!DOCTYPE svg PUBLIC "-//W3C//DTD SVG 1.1//EN" "http://www.w3.org/Graphics/SVG/1.1/DTD/svg11.dtd">
<svg version="1.1" id="Layer_1" xmlns="http://www.w3.org/2000/svg" xmlns:xlink="http://www.w3.org/1999/xlink" x="0px" y="0px"
	 viewBox="632 263 612 266" enable-background="new 632 263 612 266" xml:space="preserve">
<g>
	<g>
		<path fill="#FFFFFF" stroke="#F32600" stroke-width="3" stroke-miterlimit="10" d="M701.8,309.8v112c0,15.5,35.5,27.8,78.4,27.8
			s78.4-12.5,78.4-27.8v-112H701.8z"/>
		<ellipse fill="#FFFFFF" stroke="#F32600" stroke-width="3" stroke-miterlimit="10" cx="780.4" cy="304.6" rx="77.5" ry="27.8"/>
		<path fill="none" stroke="#F32600" stroke-width="3" stroke-miterlimit="10" d="M857.9,361.8c0,15.5-34.7,27.8-77.5,27.8
			s-77.6-12.3-77.6-27.8"/>
	</g>
	<g>
		<path fill="#FFFFFF" stroke="#F32600" stroke-width="3" stroke-miterlimit="10" d="M991,418.4h-60.4c-13.8,0-25.1-11.3-25.1-25.1
			v-60.4c0-13.8,11.3-25.1,25.1-25.1H991c13.8,0,25.1,11.3,25.1,25.1v60.4C1016,407.2,1004.8,418.4,991,418.4z"/>
		<path fill="#FFFFFF" stroke="#F32600" stroke-width="3" stroke-miterlimit="10" d="M1007.1,418.4h-60.4
			c-13.8,0-25.1-11.3-25.1-25.1v-60.4c0-13.8,11.3-25.1,25.1-25.1h60.4c13.8,0,25.1,11.3,25.1,25.1v60.4
			C1032.1,407.2,1020.9,418.4,1007.1,418.4z"/>
		<path fill="#FFFFFF" stroke="#F32600" stroke-width="3" stroke-miterlimit="10" d="M1023.2,418.4h-60.4
			c-13.8,0-25.1-11.3-25.1-25.1v-60.4c0-13.8,11.3-25.1,25.1-25.1h60.4c13.8,0,25.1,11.3,25.1,25.1v60.4
			C1048.2,407.2,1036.9,418.4,1023.2,418.4z"/>
	</g>
	<path fill="#FFFFFF" stroke="#F32600" stroke-width="3" stroke-miterlimit="10" d="M1149.1,401.9h-27.6
		c-13.8,0-25.1-11.3-25.1-25.1v-27.6c0-13.8,11.3-25.1,25.1-25.1h27.6c13.8,0,25.1,11.3,25.1,25.1v27.6
		C1174.2,390.7,1162.9,401.9,1149.1,401.9z"/>
	<g>
		<polygon fill="#F0191A" points="874.2,352.2 893,363.1 874.2,373.9 		"/>
	</g>
	<g>
		<polygon fill="#F0191A" points="1066.4,352.2 1085.2,363.1 1066.4,373.9 		"/>
	</g>
	<g enable-background="new    ">
		<path fill="#7C7C7C" d="M708.7,515.1c-0.9,0-1.7-0.2-2.5-0.6s-1.4-0.9-2-1.5c-0.6-0.6-1-1.3-1.3-2.2c-0.3-0.8-0.5-1.7-0.5-2.6
			s0.1-1.8,0.4-2.6c0.3-0.8,0.7-1.5,1.2-2.2c0.5-0.6,1.2-1.1,1.9-1.5s1.5-0.5,2.4-0.5c1.1,0,2,0.3,2.8,0.8c0.8,0.6,1.5,1.2,2,2v-7.6
			h2.2v15.6c0,0.5,0.2,0.8,0.7,0.8v1.9c-0.2,0-0.3,0.1-0.5,0.1c-0.1,0-0.3,0-0.4,0c-0.5,0-0.9-0.1-1.2-0.4s-0.5-0.6-0.5-0.9v-1.2
			c-0.5,0.9-1.2,1.5-2.1,2C710.4,514.9,709.6,515.1,708.7,515.1z M709.2,513.2c0.4,0,0.8-0.1,1.2-0.2c0.4-0.1,0.8-0.4,1.2-0.6
			c0.4-0.3,0.7-0.6,1-0.9c0.3-0.4,0.5-0.7,0.5-1.1v-3.8c-0.2-0.4-0.4-0.8-0.7-1.2c-0.3-0.4-0.6-0.7-1-1s-0.8-0.5-1.2-0.7
			c-0.4-0.2-0.8-0.2-1.3-0.2c-0.7,0-1.2,0.1-1.8,0.4c-0.5,0.3-1,0.6-1.4,1.1s-0.7,1-0.9,1.6c-0.2,0.6-0.3,1.2-0.3,1.8
			c0,0.7,0.1,1.3,0.4,1.9c0.2,0.6,0.6,1.1,1,1.5c0.4,0.4,0.9,0.8,1.4,1C708,513.1,708.6,513.2,709.2,513.2z"/>
		<path fill="#7C7C7C" d="M725.8,515.1c-1,0-1.9-0.3-2.8-0.8c-0.8-0.5-1.5-1.2-2-2v2.5h-2v-18.2h2.2v7.8c0.6-0.9,1.2-1.5,2-2.1
			c0.8-0.5,1.7-0.8,2.8-0.8c0.9,0,1.7,0.2,2.4,0.6s1.3,0.9,1.8,1.5s0.9,1.4,1.2,2.2s0.4,1.7,0.4,2.5c0,0.9-0.2,1.8-0.5,2.6
			c-0.3,0.8-0.8,1.5-1.3,2.1c-0.6,0.6-1.2,1.1-2,1.5C727.5,515,726.7,515.1,725.8,515.1z M725.2,513.2c0.7,0,1.3-0.1,1.8-0.4
			c0.6-0.3,1-0.6,1.4-1.1s0.7-1,0.9-1.5c0.2-0.6,0.3-1.2,0.3-1.8c0-0.6-0.1-1.2-0.3-1.8c-0.2-0.6-0.5-1.1-0.9-1.6s-0.8-0.8-1.4-1.1
			c-0.5-0.3-1.1-0.4-1.7-0.4c-0.5,0-0.9,0.1-1.3,0.3c-0.4,0.2-0.8,0.4-1.2,0.7c-0.4,0.3-0.7,0.6-1,1c-0.3,0.4-0.5,0.8-0.7,1.2v3.8
			c0.1,0.4,0.3,0.8,0.5,1.2c0.3,0.4,0.6,0.7,1,0.9c0.4,0.3,0.8,0.5,1.2,0.6C724.4,513.2,724.8,513.2,725.2,513.2z"/>
		<path fill="#7C7C7C" d="M734.4,514.8v-2.8h1.9v2.8H734.4z"/>
		<path fill="#7C7C7C" d="M738.8,505.9c0-1.1,0.2-2.1,0.6-3.2s0.9-2,1.7-2.9c0.7-0.8,1.6-1.5,2.7-2c1.1-0.5,2.2-0.8,3.6-0.8
			c1.6,0,3,0.4,4.1,1.1s2,1.7,2.5,2.8l-1.8,1.2c-0.3-0.6-0.6-1-1-1.4c-0.4-0.4-0.8-0.7-1.2-0.9c-0.4-0.2-0.9-0.4-1.4-0.5
			s-0.9-0.2-1.4-0.2c-1,0-1.9,0.2-2.6,0.6c-0.8,0.4-1.4,0.9-1.9,1.6s-0.9,1.4-1.2,2.2c-0.3,0.8-0.4,1.7-0.4,2.5
			c0,0.9,0.2,1.8,0.5,2.7c0.3,0.8,0.7,1.6,1.3,2.2c0.6,0.7,1.2,1.2,2,1.6c0.8,0.4,1.6,0.6,2.5,0.6c0.5,0,0.9-0.1,1.4-0.2
			c0.5-0.1,1-0.3,1.4-0.6c0.5-0.3,0.9-0.6,1.3-1c0.4-0.4,0.7-0.9,1-1.4l1.9,1c-0.3,0.7-0.7,1.3-1.2,1.8s-1.1,0.9-1.7,1.3
			c-0.6,0.4-1.3,0.6-2,0.8c-0.7,0.2-1.4,0.3-2.1,0.3c-1.2,0-2.3-0.3-3.4-0.8c-1-0.5-1.9-1.2-2.6-2.1c-0.7-0.9-1.3-1.8-1.7-2.9
			C739.3,508.2,738.8,507,738.8,505.9z"/>
		<path fill="#7C7C7C" d="M762.4,515.1c-1,0-1.9-0.2-2.7-0.6s-1.5-0.9-2.1-1.5c-0.6-0.6-1-1.3-1.3-2.2c-0.3-0.8-0.5-1.7-0.5-2.6
			s0.2-1.8,0.5-2.6c0.3-0.8,0.8-1.5,1.4-2.2c0.6-0.6,1.3-1.1,2.1-1.5c0.8-0.4,1.7-0.6,2.7-0.6s1.9,0.2,2.7,0.6s1.5,0.9,2.1,1.5
			c0.6,0.6,1,1.3,1.4,2.2c0.3,0.8,0.5,1.7,0.5,2.6s-0.2,1.8-0.5,2.6c-0.3,0.8-0.8,1.5-1.4,2.2c-0.6,0.6-1.3,1.1-2.1,1.5
			C764.2,515,763.3,515.1,762.4,515.1z M758,508.4c0,0.7,0.1,1.3,0.3,1.9c0.2,0.6,0.5,1.1,0.9,1.5c0.4,0.4,0.9,0.8,1.4,1
			c0.5,0.3,1.1,0.4,1.7,0.4c0.6,0,1.2-0.1,1.7-0.4c0.5-0.2,1-0.6,1.4-1c0.4-0.4,0.7-1,0.9-1.6s0.3-1.2,0.3-1.9
			c0-0.7-0.1-1.3-0.3-1.9s-0.5-1.1-0.9-1.6c-0.4-0.4-0.9-0.8-1.4-1s-1.1-0.4-1.7-0.4c-0.6,0-1.2,0.1-1.7,0.4s-1,0.6-1.4,1.1
			c-0.4,0.4-0.7,1-0.9,1.6C758.1,507.1,758,507.7,758,508.4z"/>
		<path fill="#7C7C7C" d="M771.6,496.6h2.2v14.9c0,0.5,0.1,0.9,0.4,1.1c0.3,0.3,0.6,0.4,1.1,0.4c0.2,0,0.4,0,0.7-0.1
			c0.3-0.1,0.5-0.1,0.7-0.2l0.4,1.8c-0.4,0.2-0.8,0.3-1.3,0.4s-0.9,0.2-1.3,0.2c-0.9,0-1.5-0.2-2-0.7s-0.7-1.2-0.7-2v-15.8H771.6z"
			/>
		<path fill="#7C7C7C" d="M778.7,496.6h2.2v14.9c0,0.5,0.1,0.9,0.4,1.1c0.3,0.3,0.6,0.4,1.1,0.4c0.2,0,0.4,0,0.7-0.1
			c0.3-0.1,0.5-0.1,0.7-0.2l0.4,1.8c-0.4,0.2-0.8,0.3-1.3,0.4s-0.9,0.2-1.3,0.2c-0.9,0-1.5-0.2-2-0.7s-0.7-1.2-0.7-2v-15.8H778.7z"
			/>
		<path fill="#7C7C7C" d="M791.5,515.1c-1,0-1.9-0.2-2.7-0.5c-0.8-0.4-1.5-0.8-2.1-1.5c-0.6-0.6-1-1.3-1.4-2.2
			c-0.3-0.8-0.5-1.7-0.5-2.6s0.2-1.8,0.5-2.6c0.3-0.8,0.8-1.5,1.4-2.2c0.6-0.6,1.3-1.1,2.1-1.5c0.8-0.4,1.7-0.5,2.7-0.5
			s1.9,0.2,2.7,0.6s1.5,0.9,2.1,1.5c0.6,0.6,1,1.3,1.3,2.1c0.3,0.8,0.5,1.7,0.5,2.5c0,0.2,0,0.4,0,0.5c0,0.2,0,0.3,0,0.4h-10.9
			c0.1,0.7,0.2,1.2,0.5,1.8c0.3,0.5,0.6,1,1,1.4c0.4,0.4,0.9,0.7,1.4,0.9s1,0.3,1.6,0.3c0.4,0,0.8-0.1,1.2-0.2s0.7-0.3,1.1-0.4
			c0.3-0.2,0.6-0.4,0.9-0.7c0.3-0.3,0.5-0.6,0.6-0.9l1.9,0.5c-0.2,0.5-0.5,0.9-0.9,1.3c-0.4,0.4-0.8,0.7-1.3,1s-1,0.5-1.6,0.7
			C793,514.9,792.1,515.1,791.5,515.1z M796,507.5c-0.1-0.6-0.2-1.2-0.5-1.7c-0.3-0.5-0.6-1-1-1.3c-0.4-0.4-0.8-0.7-1.4-0.9
			c-0.6-0.2-1.1-0.3-1.7-0.3s-1.1,0.1-1.7,0.3c-0.6,0.2-1,0.5-1.4,0.9c-0.4,0.4-0.7,0.8-1,1.3c-0.2,0.5-0.4,1.1-0.4,1.7H796z"/>
		<path fill="#7C7C7C" d="M799.6,508.3c0-0.9,0.2-1.8,0.5-2.6s0.8-1.5,1.4-2.1c0.6-0.6,1.3-1.1,2.1-1.5s1.7-0.5,2.7-0.5
			c1.3,0,2.4,0.3,3.4,0.9c0.9,0.6,1.7,1.4,2.1,2.3l-2.2,0.7c-0.3-0.6-0.8-1.1-1.4-1.4c-0.6-0.3-1.3-0.5-2-0.5
			c-0.6,0-1.2,0.1-1.7,0.4c-0.5,0.2-1,0.6-1.4,1s-0.7,0.9-0.9,1.5c-0.2,0.6-0.3,1.2-0.3,1.9c0,0.7,0.1,1.3,0.4,1.9
			c0.2,0.6,0.5,1.1,0.9,1.6c0.4,0.4,0.9,0.8,1.4,1c0.5,0.3,1.1,0.4,1.7,0.4c0.4,0,0.8-0.1,1.1-0.2c0.4-0.1,0.7-0.3,1-0.4
			c0.3-0.2,0.6-0.4,0.8-0.6s0.4-0.5,0.5-0.8l2.2,0.7c-0.2,0.5-0.5,0.9-0.8,1.3c-0.4,0.4-0.8,0.7-1.3,1s-1,0.5-1.6,0.7
			c-0.6,0.2-1.2,0.3-1.9,0.3c-1,0-1.9-0.2-2.7-0.6c-0.8-0.4-1.5-0.9-2.1-1.5c-0.6-0.6-1-1.3-1.4-2.2
			C799.8,510.1,799.6,509.2,799.6,508.3z"/>
		<path fill="#7C7C7C" d="M821.1,514.2c-0.1,0.1-0.3,0.1-0.5,0.2s-0.5,0.2-0.7,0.3c-0.2,0.1-0.6,0.2-0.9,0.2c-0.3,0.1-0.7,0.1-1,0.1
			c-0.8,0-1.5-0.2-2.1-0.7c-0.6-0.4-0.9-1.1-0.9-2.1v-8.8h-1.8v-1.7h1.8v-4.4h2.2v4.4h2.9v1.7h-2.9v8.1c0,0.5,0.2,0.8,0.5,1.1
			c0.3,0.2,0.6,0.3,1,0.3c0.4,0,0.8-0.1,1.2-0.2s0.6-0.3,0.7-0.3L821.1,514.2z"/>
		<path fill="#7C7C7C" d="M823,499.4v-2.8h2.2v2.8H823z M823,514.8v-13.1h2.2v13.1H823z"/>
		<path fill="#7C7C7C" d="M834.5,515.1c-1,0-1.9-0.2-2.7-0.6c-0.8-0.4-1.5-0.9-2.1-1.5s-1-1.3-1.3-2.2c-0.3-0.8-0.5-1.7-0.5-2.6
			s0.2-1.8,0.5-2.6c0.3-0.8,0.8-1.5,1.4-2.2c0.6-0.6,1.3-1.1,2.1-1.5c0.8-0.4,1.7-0.6,2.7-0.6s1.9,0.2,2.7,0.6s1.5,0.9,2.1,1.5
			c0.6,0.6,1,1.3,1.4,2.2c0.3,0.8,0.5,1.7,0.5,2.6s-0.2,1.8-0.5,2.6c-0.3,0.8-0.8,1.5-1.4,2.2c-0.6,0.6-1.3,1.1-2.1,1.5
			C836.4,515,835.5,515.1,834.5,515.1z M830.1,508.4c0,0.7,0.1,1.3,0.3,1.9s0.5,1.1,0.9,1.5c0.4,0.4,0.9,0.8,1.4,1
			c0.5,0.3,1.1,0.4,1.7,0.4s1.2-0.1,1.7-0.4c0.5-0.2,1-0.6,1.4-1c0.4-0.4,0.7-1,0.9-1.6c0.2-0.6,0.3-1.2,0.3-1.9
			c0-0.7-0.1-1.3-0.3-1.9c-0.2-0.6-0.5-1.1-0.9-1.6c-0.4-0.4-0.9-0.8-1.4-1s-1.1-0.4-1.7-0.4c-0.6,0-1.2,0.1-1.7,0.4s-1,0.6-1.4,1.1
			c-0.4,0.4-0.7,1-0.9,1.6S830.1,507.7,830.1,508.4z"/>
		<path fill="#7C7C7C" d="M855.1,514.8h-2.3v-7.3c0-1.4-0.2-2.4-0.6-3.1c-0.4-0.6-1.1-1-1.9-1c-0.5,0-0.9,0.1-1.4,0.3
			c-0.5,0.2-0.9,0.4-1.3,0.7c-0.4,0.3-0.8,0.7-1.1,1.1c-0.3,0.4-0.5,0.9-0.7,1.4v7.9h-2.2v-13.1h2v2.8c0.5-0.9,1.3-1.7,2.2-2.2
			c0.9-0.5,2-0.8,3.2-0.8c0.8,0,1.4,0.1,1.9,0.4s0.9,0.7,1.2,1.2c0.3,0.5,0.5,1.1,0.6,1.7c0.1,0.7,0.2,1.4,0.2,2.2v7.8H855.1z"/>
	</g>
	<g enable-background="new    ">
		<path fill="#7C7C7C" d="M929.5,505.9c0-1.1,0.2-2.1,0.6-3.2s0.9-2,1.7-2.9c0.7-0.8,1.6-1.5,2.7-2s2.2-0.8,3.6-0.8
			c1.6,0,3,0.4,4.1,1.1s2,1.7,2.5,2.8l-1.8,1.2c-0.3-0.6-0.6-1-1-1.4s-0.8-0.7-1.2-0.9c-0.4-0.2-0.9-0.4-1.4-0.5s-0.9-0.2-1.4-0.2
			c-1,0-1.9,0.2-2.6,0.6c-0.8,0.4-1.4,0.9-1.9,1.6s-0.9,1.4-1.2,2.2c-0.3,0.8-0.4,1.7-0.4,2.5c0,0.9,0.2,1.8,0.5,2.7
			c0.3,0.8,0.7,1.6,1.3,2.2c0.6,0.7,1.2,1.2,2,1.6c0.8,0.4,1.6,0.6,2.5,0.6c0.5,0,0.9-0.1,1.4-0.2c0.5-0.1,1-0.3,1.4-0.6
			c0.5-0.3,0.9-0.6,1.3-1c0.4-0.4,0.7-0.9,1-1.4l1.9,1c-0.3,0.7-0.7,1.3-1.2,1.8s-1.1,0.9-1.7,1.3c-0.6,0.4-1.3,0.6-2,0.8
			c-0.7,0.2-1.4,0.3-2.1,0.3c-1.2,0-2.3-0.3-3.4-0.8c-1-0.5-1.9-1.2-2.6-2.1c-0.7-0.9-1.3-1.8-1.7-2.9S929.5,507,929.5,505.9z"/>
		<path fill="#7C7C7C" d="M953,515.1c-1,0-1.9-0.2-2.7-0.6c-0.8-0.4-1.5-0.9-2.1-1.5s-1-1.3-1.3-2.2c-0.3-0.8-0.5-1.7-0.5-2.6
			s0.2-1.8,0.5-2.6c0.3-0.8,0.8-1.5,1.4-2.2c0.6-0.6,1.3-1.1,2.1-1.5c0.8-0.4,1.7-0.6,2.7-0.6s1.9,0.2,2.7,0.6
			c0.8,0.4,1.5,0.9,2.1,1.5c0.6,0.6,1,1.3,1.4,2.2c0.3,0.8,0.5,1.7,0.5,2.6s-0.2,1.8-0.5,2.6c-0.3,0.8-0.8,1.5-1.4,2.2
			c-0.6,0.6-1.3,1.1-2.1,1.5S954,515.1,953,515.1z M948.7,508.4c0,0.7,0.1,1.3,0.3,1.9c0.2,0.6,0.5,1.1,0.9,1.5
			c0.4,0.4,0.9,0.8,1.4,1c0.5,0.3,1.1,0.4,1.7,0.4s1.2-0.1,1.7-0.4c0.5-0.2,1-0.6,1.4-1c0.4-0.4,0.7-1,0.9-1.6
			c0.2-0.6,0.3-1.2,0.3-1.9c0-0.7-0.1-1.3-0.3-1.9c-0.2-0.6-0.5-1.1-0.9-1.6c-0.4-0.4-0.9-0.8-1.4-1s-1.1-0.4-1.7-0.4
			s-1.2,0.1-1.7,0.4s-1,0.6-1.4,1.1c-0.4,0.4-0.7,1-0.9,1.6S948.7,507.7,948.7,508.4z"/>
		<path fill="#7C7C7C" d="M962.3,496.6h2.2v14.9c0,0.5,0.1,0.9,0.4,1.1c0.3,0.2,0.6,0.4,1.1,0.4c0.2,0,0.4,0,0.7-0.1
			c0.2-0.1,0.5-0.1,0.7-0.2l0.4,1.8c-0.4,0.2-0.8,0.3-1.3,0.4s-0.9,0.2-1.3,0.2c-0.9,0-1.5-0.2-2-0.7s-0.7-1.2-0.7-2v-15.8H962.3z"
			/>
		<path fill="#7C7C7C" d="M969.3,496.6h2.2v14.9c0,0.5,0.1,0.9,0.4,1.1c0.3,0.2,0.6,0.4,1.1,0.4c0.2,0,0.4,0,0.7-0.1
			c0.2-0.1,0.5-0.1,0.7-0.2l0.4,1.8c-0.4,0.2-0.8,0.3-1.3,0.4s-0.9,0.2-1.3,0.2c-0.9,0-1.5-0.2-2-0.7s-0.7-1.2-0.7-2v-15.8H969.3z"
			/>
		<path fill="#7C7C7C" d="M982.1,515.1c-1,0-1.9-0.2-2.7-0.5c-0.8-0.4-1.5-0.8-2.1-1.5c-0.6-0.7-1-1.3-1.4-2.2
			c-0.4-0.9-0.5-1.7-0.5-2.6s0.2-1.8,0.5-2.6c0.3-0.8,0.8-1.5,1.4-2.2c0.6-0.6,1.3-1.1,2.1-1.5c0.8-0.4,1.7-0.5,2.7-0.5
			s1.9,0.2,2.7,0.6c0.8,0.4,1.5,0.9,2.1,1.5s1,1.3,1.3,2.1c0.3,0.8,0.5,1.7,0.5,2.5c0,0.2,0,0.4,0,0.5c0,0.2,0,0.3,0,0.4h-10.9
			c0,0.7,0.2,1.2,0.5,1.8c0.3,0.6,0.6,1,1,1.4c0.4,0.4,0.9,0.7,1.4,0.9s1,0.3,1.6,0.3c0.4,0,0.8-0.1,1.2-0.2s0.7-0.3,1.1-0.4
			c0.3-0.2,0.6-0.4,0.9-0.7c0.3-0.3,0.5-0.6,0.6-0.9l1.9,0.5c-0.2,0.5-0.5,0.9-0.9,1.3s-0.8,0.7-1.3,1s-1,0.5-1.6,0.7
			C983.4,515.1,982.8,515.1,982.1,515.1z M986.6,507.5c-0.1-0.6-0.2-1.2-0.5-1.7c-0.3-0.5-0.6-1-1-1.3c-0.4-0.4-0.8-0.7-1.4-0.9
			c-0.5-0.2-1.1-0.3-1.7-0.3s-1.1,0.1-1.7,0.3c-0.5,0.2-1,0.5-1.4,0.9c-0.4,0.4-0.7,0.8-1,1.3c-0.2,0.5-0.4,1.1-0.4,1.7H986.6z"/>
		<path fill="#7C7C7C" d="M990.3,508.3c0-0.9,0.2-1.8,0.5-2.6c0.3-0.8,0.8-1.5,1.4-2.1s1.3-1.1,2.1-1.5c0.8-0.4,1.7-0.5,2.7-0.5
			c1.3,0,2.4,0.3,3.4,0.9c0.9,0.6,1.7,1.4,2.1,2.3l-2.2,0.7c-0.3-0.6-0.8-1.1-1.4-1.4s-1.3-0.5-2-0.5c-0.6,0-1.2,0.1-1.7,0.4
			s-1,0.6-1.4,1c-0.4,0.4-0.7,0.9-0.9,1.5s-0.3,1.2-0.3,1.9c0,0.7,0.1,1.3,0.4,1.9c0.2,0.6,0.5,1.1,0.9,1.6c0.4,0.5,0.9,0.8,1.4,1
			c0.5,0.3,1.1,0.4,1.7,0.4c0.4,0,0.8-0.1,1.1-0.2c0.4-0.1,0.7-0.3,1-0.4c0.3-0.2,0.6-0.4,0.8-0.6c0.2-0.2,0.4-0.5,0.5-0.8l2.2,0.7
			c-0.2,0.5-0.5,0.9-0.8,1.3s-0.8,0.7-1.3,1s-1,0.5-1.6,0.7c-0.6,0.2-1.2,0.3-1.9,0.3c-1,0-1.9-0.2-2.7-0.6
			c-0.8-0.4-1.5-0.9-2.1-1.5c-0.6-0.6-1-1.3-1.4-2.2S990.3,509.2,990.3,508.3z"/>
		<path fill="#7C7C7C" d="M1011.8,514.2c-0.1,0.1-0.3,0.1-0.5,0.2c-0.2,0.1-0.5,0.2-0.7,0.3c-0.2,0.1-0.6,0.2-0.9,0.2
			c-0.3,0.1-0.7,0.1-1,0.1c-0.8,0-1.5-0.2-2.1-0.7c-0.6-0.4-0.9-1.1-0.9-2.1v-8.8h-1.8v-1.7h1.8v-4.4h2.2v4.4h2.9v1.7h-2.9v8.1
			c0,0.5,0.2,0.8,0.5,1.1c0.3,0.2,0.6,0.3,1,0.3s0.8-0.1,1.2-0.2s0.6-0.3,0.7-0.3L1011.8,514.2z"/>
		<path fill="#7C7C7C" d="M1013.7,499.4v-2.8h2.2v2.8H1013.7z M1013.7,514.8v-13.1h2.2v13.1H1013.7z"/>
		<path fill="#7C7C7C" d="M1025.1,515.1c-1,0-1.9-0.2-2.7-0.6c-0.8-0.4-1.5-0.9-2.1-1.5s-1-1.3-1.3-2.2c-0.3-0.8-0.5-1.7-0.5-2.6
			s0.2-1.8,0.5-2.6c0.3-0.8,0.8-1.5,1.4-2.2c0.6-0.6,1.3-1.1,2.1-1.5c0.8-0.4,1.7-0.6,2.7-0.6s1.9,0.2,2.7,0.6
			c0.8,0.4,1.5,0.9,2.1,1.5c0.6,0.6,1,1.3,1.4,2.2c0.3,0.8,0.5,1.7,0.5,2.6s-0.2,1.8-0.5,2.6c-0.3,0.8-0.8,1.5-1.4,2.2
			c-0.6,0.6-1.3,1.1-2.1,1.5S1026.1,515.1,1025.1,515.1z M1020.8,508.4c0,0.7,0.1,1.3,0.3,1.9c0.2,0.6,0.5,1.1,0.9,1.5
			c0.4,0.4,0.9,0.8,1.4,1c0.5,0.3,1.1,0.4,1.7,0.4s1.2-0.1,1.7-0.4c0.5-0.2,1-0.6,1.4-1c0.4-0.4,0.7-1,0.9-1.6
			c0.2-0.6,0.3-1.2,0.3-1.9c0-0.7-0.1-1.3-0.3-1.9c-0.2-0.6-0.5-1.1-0.9-1.6c-0.4-0.4-0.9-0.8-1.4-1s-1.1-0.4-1.7-0.4
			s-1.2,0.1-1.7,0.4s-1,0.6-1.4,1.1c-0.4,0.4-0.7,1-0.9,1.6C1020.9,507.1,1020.8,507.7,1020.8,508.4z"/>
		<path fill="#7C7C7C" d="M1045.7,514.8h-2.2v-7.3c0-1.4-0.2-2.4-0.6-3.1c-0.4-0.6-1.1-1-1.9-1c-0.5,0-0.9,0.1-1.4,0.3
			c-0.5,0.2-0.9,0.4-1.3,0.7c-0.4,0.3-0.8,0.7-1.1,1.1c-0.3,0.4-0.5,0.9-0.7,1.4v7.9h-2.2v-13.1h2v2.8c0.5-0.9,1.3-1.7,2.2-2.2
			c1-0.6,2-0.8,3.2-0.8c0.8,0,1.4,0.1,1.9,0.4s0.9,0.7,1.2,1.2c0.3,0.5,0.5,1.1,0.6,1.7c0.1,0.7,0.2,1.4,0.2,2.2L1045.7,514.8
			L1045.7,514.8z"/>
	</g>
	<g enable-background="new    ">
		<path fill="#7C7C7C" d="M1114.9,514.8v-17.8h2.3v17.8H1114.9z"/>
		<path fill="#7C7C7C" d="M1127.6,514.2c-0.1,0.1-0.3,0.1-0.5,0.2c-0.2,0.1-0.5,0.2-0.7,0.3c-0.2,0.1-0.6,0.2-0.9,0.2
			c-0.3,0.1-0.7,0.1-1,0.1c-0.8,0-1.5-0.2-2.1-0.7c-0.6-0.4-0.9-1.1-0.9-2.1v-8.8h-1.8v-1.7h1.8v-4.4h2.2v4.4h2.9v1.7h-2.9v8.1
			c0,0.5,0.2,0.8,0.5,1.1c0.3,0.2,0.6,0.3,1,0.3c0.4,0,0.8-0.1,1.2-0.2s0.6-0.3,0.7-0.3L1127.6,514.2z"/>
		<path fill="#7C7C7C" d="M1135.3,515.1c-1,0-1.9-0.2-2.7-0.5c-0.8-0.4-1.5-0.8-2.1-1.5c-0.6-0.7-1-1.3-1.4-2.2s-0.5-1.7-0.5-2.6
			s0.2-1.8,0.5-2.6c0.3-0.8,0.8-1.5,1.4-2.2c0.6-0.6,1.3-1.1,2.1-1.5c0.8-0.4,1.7-0.5,2.7-0.5s1.9,0.2,2.7,0.6s1.5,0.9,2.1,1.5
			c0.6,0.6,1,1.3,1.3,2.1c0.3,0.8,0.5,1.7,0.5,2.5c0,0.2,0,0.4,0,0.5c0,0.2,0,0.3,0,0.4H1131c0,0.7,0.2,1.2,0.5,1.8
			c0.3,0.6,0.6,1,1,1.4c0.4,0.4,0.9,0.7,1.4,0.9s1,0.3,1.6,0.3c0.4,0,0.8-0.1,1.2-0.2s0.7-0.3,1.1-0.4c0.3-0.2,0.6-0.4,0.9-0.7
			c0.3-0.3,0.5-0.6,0.6-0.9l1.9,0.5c-0.2,0.5-0.5,0.9-0.9,1.3s-0.8,0.7-1.3,1s-1,0.5-1.6,0.7C1136.6,515.1,1136,515.1,1135.3,515.1z
			 M1139.8,507.5c-0.1-0.6-0.2-1.2-0.5-1.7c-0.3-0.5-0.6-1-1-1.3c-0.4-0.4-0.8-0.7-1.4-0.9c-0.5-0.2-1.1-0.3-1.7-0.3
			c-0.6,0-1.1,0.1-1.7,0.3c-0.5,0.2-1,0.5-1.4,0.9s-0.7,0.8-1,1.3c-0.2,0.5-0.4,1.1-0.4,1.7H1139.8z"/>
		<path fill="#7C7C7C" d="M1164,514.8h-2.2v-7.3c0-1.4-0.2-2.4-0.7-3c-0.4-0.7-1.1-1-2-1s-1.7,0.3-2.4,1c-0.7,0.6-1.2,1.5-1.5,2.5
			v7.9h-2.2v-7.4c0-1.4-0.2-2.4-0.7-3.1c-0.4-0.6-1.1-1-2-1s-1.7,0.3-2.4,0.9c-0.7,0.6-1.2,1.5-1.5,2.5v7.9h-2.2v-13.1h2v2.8
			c0.5-1,1.2-1.7,2.1-2.2c0.9-0.5,1.8-0.8,2.9-0.8c1.1,0,2,0.3,2.6,0.9s1,1.4,1.2,2.3c1.2-2.1,2.8-3.2,5-3.2c0.8,0,1.4,0.1,1.9,0.4
			s0.9,0.7,1.2,1.2c0.3,0.5,0.5,1.1,0.7,1.7c0.1,0.7,0.2,1.4,0.2,2.2V514.8L1164,514.8z"/>
	</g>
</g>
</svg>
